<svg width="115" height="35" viewBox="0 0 115 35" fill="none" xmlns="http://www.w3.org/2000/svg">
<path d="M16.2429 7.55931L17.0851 7.38145C17.2984 7.38145 17.4781 7.42592 17.6016 7.51485C17.7251 7.60378 17.7925 7.6927 17.7925 7.77052C17.7925 7.84833 17.77 7.97061 17.7363 8.11511C17.7026 8.25962 17.3882 9.74918 16.8043 12.5616C16.2205 15.3739 15.7938 17.4749 15.5243 18.8533C16.8268 17.0969 18.3539 14.9404 20.0943 12.3726C21.8347 9.80476 22.8565 8.104 23.1484 7.25918C23.2382 6.99239 23.3617 6.7923 23.5077 6.64779C23.6537 6.50328 23.7884 6.41435 23.9007 6.39212C24.013 6.36989 24.1926 6.34766 24.4284 6.34766C24.6642 6.34766 24.9449 6.40324 25.2706 6.50328C25.5962 6.60333 25.7646 6.77007 25.7646 7.01462C25.7646 7.45927 25.0909 8.75985 23.7547 10.8941C22.4185 13.0284 20.8803 15.2961 19.1511 17.6972C17.4219 20.0983 15.9847 21.9991 14.8282 23.3997C14.6261 23.6443 14.3678 23.7777 14.0759 23.7777C13.7839 23.7777 13.4695 23.7221 13.1439 23.6221C12.8183 23.522 12.6499 23.3442 12.6499 23.0774C12.6499 22.2437 13.3909 18.2196 14.8731 11.0275C13.6043 12.6505 12.066 14.9182 10.2582 17.8195C8.37184 20.8208 7.30515 22.6883 7.05813 23.3997C6.92339 23.8333 6.76619 24.0889 6.58654 24.1556C6.46303 24.2112 6.32828 24.2334 6.19354 24.2334L5.28404 24.3335C5.10439 24.3335 4.94719 24.289 4.78999 24.189C4.64402 24.0889 4.56543 23.9889 4.56543 23.8777C4.56543 23.5776 4.99211 22.6661 5.83424 21.1543C6.67637 19.6425 7.67569 17.9973 8.80975 16.2187C9.94382 14.4402 11.1228 12.7172 12.3579 11.0386C13.593 9.36012 14.5475 8.22628 15.2212 7.65936C15.3559 7.53708 15.5131 7.4815 15.6928 7.4815L16.2429 7.55931Z" fill="#3C2B4A"/>
<path d="M29.739 15.096C30.3228 15.096 30.6148 15.2961 30.6148 15.6851C30.6148 15.8964 30.5699 16.052 30.4688 16.152C30.3678 16.2521 30.1544 16.5744 29.8288 17.1414C29.5032 17.6972 29.1439 18.4086 28.7509 19.2868C28.3579 20.1538 28.0996 20.8986 27.9873 21.51C27.9649 21.5878 27.9537 21.6878 27.9537 21.8323C27.9537 22.2548 28.0659 22.4548 28.3017 22.4548C28.5375 22.4548 28.807 22.3437 29.1214 22.1325C29.4358 21.9102 29.7165 21.6878 29.9635 21.4322C30.2106 21.1876 30.4464 20.9319 30.6822 20.6763C30.9179 20.4206 31.0527 20.265 31.0976 20.2316C31.1425 20.1983 31.2099 20.176 31.2997 20.176C31.4457 20.176 31.5355 20.2872 31.5692 20.5095C31.6029 20.7319 31.6141 20.9542 31.6141 21.1987C31.6141 21.4433 31.5917 21.5989 31.5467 21.6878C31.3222 22.1214 30.8394 22.6438 30.0758 23.2552C29.3235 23.8666 28.6274 24.1667 28.0098 24.1667C27.3922 24.1667 26.9319 23.9777 26.6512 23.6109C26.3705 23.2441 26.2133 22.8217 26.2133 22.377C26.2133 21.9213 26.2919 21.5322 26.4491 21.1876C25.809 22.0102 25.0792 22.6994 24.2595 23.2774C23.4286 23.8444 22.7662 24.1334 22.2384 24.1334C21.7107 24.1334 21.2952 23.9777 20.9584 23.6665C20.5317 23.2774 20.3296 22.7439 20.3296 22.0547C20.3296 21.3655 20.4868 20.6763 20.8012 19.976C21.1156 19.2868 21.5198 18.642 22.0251 18.0751C22.5304 17.4971 23.0918 16.9746 23.6981 16.5077C24.9669 15.5184 26.1459 15.0293 27.2238 15.0293C27.6393 15.0293 27.9761 15.096 28.2344 15.2294C28.4926 15.3628 28.6611 15.5406 28.7284 15.7407C28.9081 15.4628 29.0653 15.2961 29.2 15.2183C29.3011 15.1293 29.4919 15.096 29.739 15.096ZM28.2119 16.3632C26.8982 16.3632 25.5396 17.0858 24.136 18.5309C23.642 19.0533 23.1816 19.6647 22.7549 20.3873C22.3282 21.1098 22.1261 21.5989 22.1261 21.8657C22.1261 22.1325 22.2047 22.2659 22.3619 22.2659C22.5753 22.2659 23.1704 21.8435 24.1585 21.0098C25.1466 20.176 25.7978 19.5535 26.1122 19.1534C26.4715 18.7087 27.1677 17.775 28.2119 16.3632Z" fill="#3C2B4A"/>
<path d="M38.475 9.07031L38.9466 9.18147C39.014 9.18147 39.0814 9.21482 39.1263 9.28152C39.1824 9.34822 39.2049 9.41491 39.2049 9.47049C39.2049 9.52607 39.1263 9.69281 38.9579 9.9596C38.7895 10.2264 38.6098 10.5265 38.3852 10.86C38.1607 11.1935 38.0484 11.3825 38.0371 11.4158C38.6322 11.3713 39.0589 11.3491 39.306 11.3491C39.553 11.3491 39.7214 11.3713 39.8225 11.4047C39.9123 11.438 40.0246 11.5381 40.1368 11.6937C40.2604 11.8493 40.3614 11.9716 40.4625 12.0494C40.5635 12.1272 40.6085 12.2495 40.6085 12.4051C40.6085 12.5608 40.5074 12.7053 40.3165 12.8053C40.1256 12.9165 39.9123 12.9832 39.6877 13.0054C37.9024 13.1833 36.9255 13.2722 36.7459 13.2833C36.1283 14.2282 35.2525 15.6955 34.1409 17.6853C33.0293 19.6751 32.4342 20.9312 32.3668 21.4314C32.3331 21.6648 32.3219 21.8427 32.3219 21.9872C32.3219 22.2873 32.4791 22.4319 32.7935 22.4319C33.1079 22.4319 33.456 22.3096 33.8377 22.0761C34.2195 21.8316 34.5788 21.5759 34.8932 21.298C35.7578 20.5421 36.2182 20.1531 36.2743 20.1531C36.4764 20.1531 36.5775 20.4977 36.5775 21.1757C36.5775 21.5426 36.409 21.876 36.061 22.1762C35.2862 22.832 34.6349 23.3323 34.1072 23.6657C33.5795 23.9992 33.0517 24.166 32.5128 24.166C32.4005 24.166 32.2882 24.1548 32.1872 24.1326C31.5696 24.0215 31.1205 23.7991 30.8398 23.4657C30.5478 23.1322 30.4131 22.6875 30.4131 22.1317C30.4131 21.5759 30.5815 20.8867 30.9184 20.0864C31.2552 19.286 31.6707 18.4301 32.1759 17.5297C33.0068 16.0512 33.8377 14.6728 34.6574 13.3834L34.2195 13.4389C33.3325 13.539 32.816 13.5834 32.67 13.5834H32.5689C32.3444 13.5834 32.131 13.539 31.9289 13.4501C31.7268 13.3611 31.6145 13.25 31.6145 13.1277C31.6145 12.9943 31.6707 12.872 31.7829 12.7497C31.8952 12.6275 31.9626 12.5274 31.9851 12.4607C32.0412 12.294 32.2433 12.105 32.5914 11.9049C32.9395 11.7048 33.1977 11.5937 33.3774 11.5825C33.557 11.5714 33.7254 11.5603 33.8939 11.5492C34.0623 11.5381 34.242 11.5381 34.4441 11.527C34.6462 11.5159 34.8034 11.5159 34.9157 11.5047L35.9487 11.4603C36.5887 10.5043 37.0378 9.88179 37.2736 9.615C37.5206 9.3371 37.6554 9.19259 37.6891 9.17036C37.7228 9.14813 37.8013 9.12589 37.9249 9.12589L38.475 9.07031Z" fill="#3C2B4A"/>
<path d="M45.3804 20.1766C45.5263 20.1766 45.6162 20.2877 45.6498 20.5101C45.6835 20.7324 45.6948 20.9547 45.6948 21.1993C45.6948 21.4438 45.6723 21.5994 45.6274 21.6884C45.4028 22.1108 44.92 22.6332 44.1677 23.2446C43.4154 23.856 42.6968 24.1673 42.0231 24.1673C41.6076 24.1673 41.2259 24.045 40.8666 23.8004C40.5185 23.5559 40.3388 23.1223 40.3388 22.511C40.3388 21.8996 40.5073 21.2882 40.8329 20.699C38.9241 23.0668 37.4419 24.2451 36.3528 24.2451C35.9261 24.2451 35.578 24.0894 35.3085 23.7893C35.039 23.4892 34.9155 23.1779 34.9155 22.8444C34.9155 22.5221 34.9604 22.1886 35.0503 21.844C35.1401 21.4994 35.2412 21.1881 35.3422 20.9102C35.4433 20.6323 35.6005 20.2989 35.8026 19.8987C36.0047 19.4985 36.1619 19.2095 36.2517 19.0205C36.3415 18.8315 36.51 18.5647 36.7345 18.1979C36.9591 17.8311 37.2398 17.3309 37.5991 16.7084C37.9584 16.0859 38.2503 15.619 38.4861 15.3189C38.7219 15.0187 38.9465 14.8631 39.1711 14.8631C39.3956 14.8631 39.5865 14.952 39.755 15.1299C39.9234 15.3077 40.0132 15.4634 40.0132 15.5745C40.0132 15.6857 39.755 16.197 39.2385 17.1085C37.7226 19.832 36.9591 21.4105 36.9591 21.8662C36.9591 21.9774 37.004 22.033 37.0826 22.033C37.4531 22.033 38.3739 21.2437 39.8336 19.6652C41.2932 18.0868 42.1466 17.0752 42.3824 16.6305C42.6182 16.1859 42.8315 15.808 43.0561 15.5078C43.2694 15.2077 43.4379 15.0187 43.5501 14.952C43.8758 14.7408 44.3024 14.6297 44.8302 14.6074C44.92 14.6074 44.9761 14.6074 45.0211 14.6185C45.066 14.6297 45.1221 14.6964 45.1783 14.8075C45.2344 14.9187 45.2681 15.0187 45.2681 15.0965C45.2007 15.3077 44.8975 15.8747 44.3474 16.7973C43.8084 17.7199 43.5052 18.2424 43.4491 18.3535C42.5396 20.2099 42.0905 21.4216 42.0905 21.9774C42.0905 22.2998 42.214 22.4554 42.461 22.4554C42.9101 22.3998 43.4491 22.0441 44.0779 21.3994C44.3137 21.1659 44.5382 20.9214 44.7628 20.6768C44.9874 20.4323 45.1333 20.2877 45.1783 20.2544C45.2344 20.1988 45.3018 20.1766 45.3804 20.1766Z" fill="#3C2B4A"/>
<path d="M48.7148 17.5414C50.5226 15.5072 52.0721 14.4845 53.3409 14.4845C53.6553 14.4845 53.9136 14.5734 54.1157 14.7624C54.3178 14.9514 54.4188 15.1848 54.4188 15.485C54.4188 15.7851 54.2055 16.2742 53.7788 16.9745C53.3522 17.6637 52.9592 18.2529 52.5999 18.7309C52.409 18.9754 52.1956 19.0977 51.9486 19.0977C51.7128 19.0977 51.5219 19.0088 51.3872 18.8309C51.2524 18.6531 51.1851 18.453 51.1851 18.2195C51.1851 17.6971 51.4658 17.0968 52.0384 16.441L52.016 16.4187C51.7577 16.441 51.1402 16.9412 50.1296 17.8972C49.1303 18.8643 48.2769 19.7313 47.5696 20.4872C46.8734 21.2542 46.1099 22.1769 45.279 23.2773C45.0432 23.5997 44.8411 23.7665 44.6726 23.7665C44.5042 23.7665 44.2909 23.7109 44.0214 23.6108C43.7519 23.5108 43.5835 23.433 43.5273 23.3885C43.4712 23.344 43.4375 23.2662 43.4375 23.1551C43.4375 23.055 43.4712 22.9216 43.5273 22.7882C43.5835 22.6437 43.707 22.4436 43.8642 22.188C44.0214 21.9323 44.2796 21.5099 44.6165 20.9318C44.9533 20.3538 45.4698 19.4756 46.1772 18.3085C46.8846 17.1413 47.3001 16.4298 47.446 16.1853C47.738 15.6851 47.9738 15.3182 48.1647 15.0959C48.5127 14.6624 49.0966 14.4512 49.9163 14.4512C50.0959 14.4512 50.197 14.5623 50.197 14.7958C50.197 15.1515 49.8601 15.8296 49.1977 16.8078L48.7148 17.5414Z" fill="#3C2B4A"/>
<path d="M61.1 15.2302C61.1 15.7304 60.8979 16.1751 60.4824 16.553C60.067 16.931 59.6066 17.12 59.0789 17.12C58.9105 17.12 58.7982 17.0755 58.742 16.9977C58.6859 16.9199 58.6634 16.8087 58.6634 16.6864C58.6634 16.5641 58.6747 16.4308 58.7083 16.3085C58.4276 16.3974 58.1245 16.5419 57.7876 16.7309C57.4508 16.9199 57.0353 17.1978 56.5413 17.5757C56.0472 17.9537 55.8002 18.2204 55.8002 18.4094C55.8002 18.465 55.89 18.4983 56.0697 18.4983C56.2493 18.4983 56.53 18.4317 56.9006 18.3094C57.2711 18.1871 57.5406 18.1204 57.6866 18.1204C57.8325 18.1204 57.9336 18.1315 57.9785 18.1426C58.0795 18.1982 58.1806 18.3094 58.3041 18.4872C58.4164 18.6651 58.4725 18.8096 58.4725 18.9096C58.4725 19.0097 58.3715 19.1431 58.1694 19.3098C57.9673 19.4766 57.7427 19.5988 57.4957 19.6878C57.2374 19.7767 57.069 19.8434 56.9904 19.8879C55.3735 20.7883 54.5651 21.3996 54.5651 21.7331C54.5651 22.3223 55.0703 22.6224 56.0921 22.6224C56.7434 22.6224 57.4059 22.4223 58.0571 22.011C58.6185 21.6664 59.1238 21.3107 59.5729 20.9439C60.0221 20.5882 60.3028 20.3658 60.4263 20.2769C60.5498 20.188 60.6396 20.1546 60.6958 20.1546C60.8979 20.1546 60.9989 20.377 60.9989 20.8216C60.9989 21.2663 60.9765 21.5553 60.9203 21.6887C60.8642 21.8332 60.7182 21.9999 60.46 22.2111C58.8206 23.5339 57.2599 24.2009 55.8002 24.2009C55.0142 24.2009 54.3966 24.0897 53.925 23.8785C53.0605 23.4895 52.6338 22.9003 52.6338 22.1C52.6338 21.055 53.3636 20.2547 54.8346 19.7211C54.5426 19.5877 54.3517 19.4321 54.2731 19.2209C54.1833 19.0208 54.1496 18.6984 54.1496 18.2538C54.1496 17.8091 54.363 17.3423 54.7784 16.8421C55.1939 16.3418 55.7104 15.9305 56.3167 15.6193C57.6641 14.8967 58.8768 14.541 59.9322 14.541C60.1905 14.541 60.4375 14.5966 60.707 14.7189C60.9765 14.8411 61.1 15.0079 61.1 15.2302Z" fill="#3C2B4A"/>
<path d="M87.3072 7.4921H87.4532C87.4981 7.4921 87.5318 7.4921 87.543 7.50322C87.5542 7.51433 87.5655 7.51433 87.5879 7.52545C87.6104 7.52545 87.6216 7.53656 87.6441 7.5588C87.6778 7.59214 87.7339 7.62549 87.8013 7.65884C87.8911 7.72554 87.936 7.80335 87.936 7.89228C87.936 7.98121 87.8462 8.17018 87.6665 8.4592C87.4869 8.74822 87.0265 9.44853 86.2742 10.5824C84.5563 13.1835 83.018 15.6068 81.6593 17.8301C79.3126 21.6985 78.1224 23.6438 78.1 23.666C78.0775 23.6882 78.0663 23.7105 78.055 23.7327C78.0438 23.7772 78.0213 23.7994 77.9652 23.7994L77.808 23.7661L77.4936 23.8439L77.314 23.8105L77.1231 23.8439H77.0557L76.4157 23.9328C76.0339 23.9328 75.843 23.7994 75.843 23.5437C75.843 23.4326 75.8767 23.2992 75.9441 23.1436C76.1799 22.5877 77.3813 20.5757 79.5372 17.0853C78.1224 17.1186 76.7189 17.1409 75.3378 17.1409L72.8675 17.1297C72.4633 17.7745 71.9019 18.686 71.1945 19.8754C69.6674 22.4655 68.859 23.7661 68.7579 23.7883C68.6569 23.8105 68.5783 23.8328 68.5109 23.8328C68.4435 23.8328 68.3874 23.7994 68.3425 23.7216C68.2864 23.6549 68.2527 23.6104 68.2302 23.6104C68.2077 23.6104 68.1741 23.6215 68.1067 23.6549C68.0506 23.6882 67.9607 23.6994 67.8372 23.6994L67.5677 23.6882L67.4667 23.6215C67.4555 23.6215 67.4442 23.6327 67.433 23.6549C67.4218 23.6771 67.3881 23.6882 67.3432 23.6882C67.0175 23.6882 66.8491 23.5548 66.8491 23.2769C66.8491 23.0991 66.9165 22.8545 67.04 22.5544C67.1747 22.2543 67.3432 21.9319 67.5565 21.5873C67.7699 21.2427 68.3088 20.409 69.1958 19.1084C70.0717 17.8078 70.5096 17.152 70.5096 17.1409C70.3636 17.1297 70.1952 17.1298 70.0043 17.1186C69.6113 17.1186 69.3418 17.1075 69.1734 17.0742C68.7355 16.9964 68.4323 16.6406 68.2751 16.007C68.1853 15.6958 68.1516 15.4957 68.1628 15.3956C68.1628 15.1955 68.2527 15.0844 68.4323 15.0844L68.7355 15.1622C68.8927 15.1733 69.252 15.1844 69.8359 15.2178C70.4197 15.2511 70.8352 15.2622 71.0934 15.2622L71.7447 15.24C72.744 13.6949 73.9342 11.9385 75.3265 9.9821C74.316 10.8047 73.1932 11.216 71.958 11.216C71.3742 11.216 70.8689 11.0826 70.4534 10.8047C70.0267 10.5268 69.8246 10.1711 69.8246 9.74867C69.8246 9.32626 69.9818 8.99277 70.3075 8.7371C70.6331 8.49255 70.9362 8.37027 71.2282 8.37027C71.5201 8.37027 71.6661 8.41473 71.6661 8.50366C71.6661 8.53701 71.6212 8.57036 71.5426 8.60371C71.464 8.64817 71.4191 8.68152 71.4191 8.71487C71.4191 8.83715 71.5538 8.94831 71.8233 9.03724C72.0928 9.12616 72.3959 9.18175 72.7328 9.18175C73.0696 9.18175 73.4739 9.0817 73.9679 8.89273C74.462 8.70375 74.9672 8.44808 75.495 8.14795C76.236 7.72554 76.8199 7.36982 77.2466 7.09192C77.4936 6.96964 77.7182 6.91406 77.9428 6.91406C78.1673 6.91406 78.3133 6.93629 78.4143 6.99187C78.5154 7.03634 78.5828 7.09192 78.6277 7.13639C78.6726 7.18085 78.7287 7.24755 78.7736 7.32536C78.8298 7.40317 78.8747 7.46987 78.9308 7.50322C78.9758 7.54768 79.0095 7.59214 79.0095 7.64772C79.0095 7.7033 78.9758 7.78112 78.9196 7.9034C78.8635 8.01456 78.5715 8.48143 78.0438 9.29291C77.5161 10.1044 76.8311 11.1382 76.0002 12.3943C75.1693 13.6504 74.563 14.5731 74.1812 15.1733C76.236 15.1733 78.448 15.14 80.8284 15.0622C83.7254 10.5379 85.2524 8.17018 85.4096 7.94786C85.5668 7.72554 85.7128 7.58103 85.8475 7.51433C85.9823 7.44764 86.1395 7.41429 86.3303 7.41429L87.3072 7.4921Z" fill="#3C2B4A"/>
<path d="M91.0575 15.0738C91.2933 15.0738 91.5291 15.1739 91.7649 15.3851C92.0119 15.5963 92.1242 15.9075 92.1242 16.33C92.1242 16.7524 91.9783 17.2971 91.6751 17.9751C91.3719 18.6421 90.9677 19.3313 90.44 20.0316C89.9235 20.7208 89.3396 21.3767 88.722 21.988C88.0932 22.5994 87.4195 23.0997 86.7009 23.4887C85.9711 23.8778 85.3198 24.0779 84.7247 24.0779C84.1296 24.0779 83.658 23.8889 83.2987 23.5221C82.9394 23.1552 82.7598 22.6439 82.7598 21.988C82.7598 21.3322 82.9282 20.5985 83.2538 19.8093C83.5794 19.0089 83.9949 18.3086 84.5114 17.6972C85.0279 17.0859 85.5781 16.5412 86.1844 16.0521C87.4308 15.0516 88.5311 14.5625 89.4743 14.5625C89.901 14.5625 90.2154 14.6625 90.4287 14.8738C90.5073 14.9404 90.541 15.0071 90.541 15.0516V15.1183C90.6645 15.0738 90.833 15.0738 91.0575 15.0738ZM89.901 16.5856H89.8224C89.5529 16.5856 89.4182 16.3967 89.4182 16.0076C88.8568 16.1855 88.2729 16.5078 87.6553 16.9636C87.0378 17.4193 86.4876 17.964 86.0048 18.5865C85.0167 19.8315 84.5226 20.8876 84.5114 21.7435C84.5114 22.1659 84.6686 22.3771 84.983 22.3771C85.2974 22.3771 85.769 22.1659 86.3865 21.7657C87.0041 21.3655 87.6217 20.7764 88.2392 20.0094C88.8455 19.2535 89.3059 18.5865 89.6091 18.0307C89.9122 17.4749 90.0694 17.097 90.0694 16.8858C90.0582 16.6857 90.0021 16.5856 89.901 16.5856Z" fill="#3C2B4A"/>
<path d="M91.8772 23.8229L91.3158 23.8007H91.1137C91.0351 23.7784 90.9565 23.734 90.8667 23.6673C90.7768 23.6006 90.7094 23.545 90.6645 23.5228C90.6196 23.5005 90.5972 23.4338 90.5972 23.356C90.5972 23.2782 90.6309 23.1337 90.687 22.9447C92.1804 19.6877 93.6288 17.0754 95.0324 15.1301C95.1896 14.9189 95.4366 14.7522 95.7734 14.641C96.1103 14.5299 96.4472 14.4743 96.7728 14.4743C96.9637 14.4743 97.0647 14.6188 97.0647 14.9189C97.0647 15.0078 97.031 15.119 96.9749 15.2524C96.9188 15.3969 96.7615 15.6192 96.5145 15.9416C96.2675 16.264 95.9756 16.6308 95.6387 17.031C95.3019 17.4312 95.111 17.6757 95.0661 17.7424C96.1215 16.6641 97.0647 15.8638 97.9181 15.3302C98.7714 14.8078 99.3778 14.541 99.7595 14.541C100.141 14.541 100.433 14.6521 100.635 14.8633C100.837 15.0745 100.939 15.308 100.939 15.5525C100.939 15.7971 100.916 16.0083 100.882 16.1639C100.849 16.3307 100.781 16.4974 100.691 16.6753C100.602 16.8531 100.523 17.0087 100.456 17.131C100.388 17.2533 100.276 17.42 100.13 17.6201C99.9729 17.8202 99.8718 17.9647 99.8157 18.0425C99.7595 18.1204 99.636 18.2649 99.4564 18.4761C99.2767 18.6873 99.1757 18.8095 99.1644 18.8318C99.3778 18.6206 99.6809 18.3093 100.063 17.8869C100.444 17.4645 100.77 17.1199 101.04 16.842C101.309 16.5641 101.635 16.2417 102.039 15.886C102.443 15.5303 102.814 15.2413 103.15 15.0301C103.981 14.5187 104.824 14.252 105.677 14.252C105.969 14.252 106.216 14.3409 106.418 14.5299C106.62 14.7188 106.721 14.93 106.721 15.1857C106.721 15.4414 106.407 16.0528 105.789 17.0087C105.172 17.9647 104.543 18.9318 103.925 19.8989C103.308 20.866 102.993 21.4774 102.993 21.7331C102.993 22.0777 103.061 22.2889 103.184 22.3556C103.319 22.4223 103.476 22.4445 103.656 22.4334C103.835 22.4223 104.105 22.3 104.431 22.0777C104.767 21.8554 105.059 21.633 105.318 21.3885C105.744 21.0105 106.126 20.6437 106.497 20.288C106.575 20.2213 106.654 20.1879 106.755 20.1879C106.901 20.1879 106.991 20.2991 107.024 20.5214C107.058 20.7437 107.069 20.9661 107.069 21.2106C107.069 21.4552 107.047 21.6108 107.002 21.6997C106.777 22.1221 106.283 22.6446 105.531 23.2671C104.767 23.8785 104.038 24.1897 103.341 24.1897C103.252 24.1897 103.195 24.1897 103.162 24.1786C102.376 24.1008 101.826 23.8896 101.522 23.5339C101.219 23.1782 101.073 22.7558 101.073 22.2778C101.073 21.7998 101.242 21.1995 101.579 20.5103C101.915 19.8211 102.275 19.1875 102.679 18.6317C103.083 18.0759 103.442 17.5645 103.779 17.1088C104.116 16.653 104.285 16.4085 104.285 16.3751C104.285 16.3418 104.251 16.3195 104.195 16.3195C103.959 16.3195 103.431 16.6975 102.6 17.4645C101.197 18.7651 99.9841 20.0212 98.9623 21.2217C98.6928 21.5441 98.0528 22.3445 97.0535 23.6451C96.9412 23.8007 96.7503 23.8785 96.5033 23.8785C96.2563 23.8785 95.998 23.834 95.7285 23.734C95.4591 23.6339 95.3243 23.5117 95.3243 23.3671C95.3243 23.2893 95.9306 22.2222 97.1545 20.1657C98.3784 18.1092 98.9848 16.9865 98.9848 16.8087C98.9848 16.6197 98.8725 16.5308 98.6479 16.5308C98.4233 16.5308 97.9518 16.8642 97.2444 17.5312C95.3019 19.3654 93.7973 21.1995 92.7306 23.0114C92.6632 23.1226 92.5285 23.2893 92.3263 23.5117C92.1242 23.734 91.9446 23.8229 91.8772 23.8229Z" fill="#3C2B4A"/>
<path d="M114.143 15.2302C114.143 15.7304 113.941 16.1751 113.526 16.553C113.11 16.931 112.65 17.12 112.122 17.12C111.954 17.12 111.842 17.0755 111.785 16.9977C111.729 16.9199 111.707 16.8087 111.707 16.6864C111.707 16.5641 111.718 16.4308 111.752 16.3085C111.471 16.3974 111.168 16.5419 110.831 16.7309C110.494 16.9199 110.079 17.1978 109.585 17.5757C109.091 17.9537 108.844 18.2204 108.844 18.4094C108.844 18.465 108.933 18.4983 109.113 18.4983C109.293 18.4983 109.573 18.4317 109.944 18.3094C110.315 18.1871 110.584 18.1204 110.73 18.1204C110.876 18.1204 110.977 18.1315 111.022 18.1426C111.123 18.1982 111.224 18.3094 111.348 18.4872C111.46 18.6651 111.516 18.8096 111.516 18.9096C111.516 19.0097 111.415 19.1431 111.213 19.3098C111.011 19.4766 110.786 19.5988 110.539 19.6878C110.281 19.7767 110.112 19.8434 110.034 19.8879C108.417 20.7883 107.609 21.3996 107.609 21.7331C107.609 22.3223 108.114 22.6224 109.136 22.6224C109.787 22.6224 110.449 22.4223 111.101 22.011C111.662 21.6664 112.167 21.3107 112.616 20.9439C113.066 20.5882 113.346 20.3658 113.47 20.2769C113.593 20.188 113.683 20.1546 113.739 20.1546C113.941 20.1546 114.042 20.377 114.042 20.8216C114.042 21.2663 114.02 21.5553 113.964 21.6887C113.908 21.8332 113.762 21.9999 113.503 22.2111C111.864 23.5339 110.303 24.2009 108.844 24.2009C108.058 24.2009 107.44 24.0897 106.969 23.8785C106.104 23.4895 105.677 22.9003 105.677 22.1C105.677 21.055 106.407 20.2547 107.878 19.7211C107.586 19.5877 107.395 19.4321 107.317 19.2209C107.227 19.0208 107.193 18.6984 107.193 18.2538C107.193 17.8091 107.406 17.3423 107.822 16.8421C108.237 16.3418 108.754 15.9305 109.36 15.6193C110.708 14.8967 111.92 14.541 112.976 14.541C113.234 14.541 113.481 14.5966 113.75 14.7189C114.02 14.8411 114.143 15.0079 114.143 15.2302Z" fill="#3C2B4A"/>
<path d="M0.320801 26.9003C3.27386 28.1231 6.28306 29.068 9.34841 29.7905C12.3913 30.5464 15.4903 31.08 18.5894 31.4135C20.1389 31.6247 21.6996 31.6469 23.2379 31.7914C24.7987 31.8025 26.3482 31.9248 27.8977 31.8359L30.222 31.7803C30.9967 31.7692 31.7715 31.6691 32.5462 31.6247C33.321 31.558 34.0957 31.5246 34.8593 31.4246L37.1611 31.1022C40.2489 30.7687 43.2469 30.0573 46.2336 29.2014C49.2541 28.3788 52.1061 27.2894 55.1265 26.1556C58.2143 25.0328 61.5604 24.2992 64.9513 24.6549C66.6244 24.8661 68.3086 25.3997 69.6785 26.3779C71.0596 27.345 72.0477 28.7234 72.6764 30.1685C71.7333 28.879 70.5543 27.823 69.1956 27.1671C67.837 26.5113 66.3436 26.2445 64.8615 26.289C61.8635 26.3334 58.9104 27.3227 56.137 28.5677C53.3187 29.9461 50.2646 31.1911 47.188 32.2249C44.089 33.2143 40.8889 34.0035 37.6439 34.4037C31.1876 35.2485 24.5741 35.2596 18.1964 33.9813C14.9963 33.4032 11.8748 32.5028 8.85435 31.3579C5.85638 30.1685 2.92578 28.779 0.320801 26.9003Z" fill="#3C2B4A"/>
<path d="M107.698 8.39275C105.194 7.33672 102.645 6.51413 100.063 5.8694C97.4915 5.19132 94.8865 4.71333 92.2703 4.37984C90.9678 4.17975 89.6428 4.13529 88.3403 3.97966C87.0266 3.94632 85.7241 3.81292 84.4104 3.8685C83.7591 3.87962 83.0967 3.87962 82.4454 3.8685C81.7942 3.8685 81.1317 3.9352 80.4805 3.95743C79.8292 4.0019 79.1667 4.01301 78.5155 4.07971L76.5618 4.31315C73.9455 4.52435 71.4079 5.05792 68.8703 5.71377C66.299 6.32516 63.8625 7.19221 61.2687 8.05927C58.6076 8.93744 55.7219 9.47101 52.825 9.07083C51.399 8.83739 49.9617 8.33717 48.8277 7.44788C47.6712 6.56971 46.8852 5.36917 46.4023 4.11306C47.1996 5.21355 48.1877 6.11395 49.3217 6.66976C50.4558 7.22556 51.7021 7.459 52.9485 7.44788C55.4636 7.44788 57.9563 6.64752 60.3143 5.64708C62.7172 4.51324 65.3558 3.51279 67.9833 2.6902C70.6332 1.90096 73.3954 1.30069 76.1575 1.01167C81.6707 0.433631 87.3073 0.567024 92.7082 1.83426C95.4142 2.40118 98.0529 3.26823 100.579 4.33538C103.117 5.42476 105.565 6.69199 107.698 8.39275Z" fill="#3C2B4A"/>
</svg>
