<svg width="150" height="50" viewBox="0 0 150 50" fill="none" xmlns="http://www.w3.org/2000/svg">
<g clip-path="url(#clip0_249_257)">
<path d="M150 0H0V50H150V0Z" fill="#DDDDDD"/>
<path d="M37.8351 31.185H40.8251V33.315H31.6251V31.185H34.9951V21.495C34.9951 21.1083 35.0084 20.7117 35.0351 20.305L32.6451 22.305C32.5051 22.4183 32.3684 22.4883 32.2351 22.515C32.1017 22.5417 31.9751 22.5417 31.8551 22.515C31.7351 22.495 31.6284 22.455 31.5351 22.395C31.4417 22.335 31.3717 22.2717 31.3251 22.205L30.4351 20.975L35.5051 16.665H37.8351V31.185ZM47.5251 19.265L46.9351 22.725C47.3017 22.645 47.6551 22.5883 47.9951 22.555C48.3284 22.5217 48.6551 22.505 48.9751 22.505C49.8484 22.505 50.6184 22.635 51.2851 22.895C51.9517 23.155 52.5117 23.515 52.9651 23.975C53.4117 24.435 53.7517 24.975 53.9851 25.595C54.2117 26.2083 54.3251 26.8717 54.3251 27.585C54.3251 28.4717 54.1717 29.2783 53.8651 30.005C53.5517 30.7317 53.1184 31.355 52.5651 31.875C52.0184 32.3883 51.3651 32.7883 50.6051 33.075C49.8517 33.355 49.0317 33.495 48.1451 33.495C47.6251 33.495 47.1284 33.4417 46.6551 33.335C46.1884 33.2283 45.7517 33.085 45.3451 32.905C44.9317 32.725 44.5517 32.5183 44.2051 32.285C43.8584 32.0517 43.5451 31.805 43.2651 31.545L44.1451 30.335C44.3251 30.075 44.5651 29.945 44.8651 29.945C45.0584 29.945 45.2551 30.005 45.4551 30.125C45.6551 30.2517 45.8817 30.3883 46.1351 30.535C46.3951 30.6817 46.6984 30.815 47.0451 30.935C47.3917 31.055 47.8117 31.115 48.3051 31.115C48.8251 31.115 49.2851 31.0317 49.6851 30.865C50.0851 30.6983 50.4151 30.4617 50.6751 30.155C50.9417 29.855 51.1417 29.495 51.2751 29.075C51.4084 28.6617 51.4751 28.2083 51.4751 27.715C51.4751 26.8083 51.2117 26.1017 50.6851 25.595C50.1651 25.0817 49.3917 24.825 48.3651 24.825C47.5717 24.825 46.7617 24.9717 45.9351 25.265L44.1651 24.755L45.5451 16.685H53.7551V17.895C53.7551 18.3017 53.6284 18.6317 53.3751 18.885C53.1217 19.1383 52.6917 19.265 52.0851 19.265H47.5251ZM68.3751 25.005C68.3751 26.4517 68.2184 27.7083 67.9051 28.775C67.5917 29.8483 67.1617 30.7317 66.6151 31.425C66.0684 32.125 65.4217 32.645 64.6751 32.985C63.9284 33.325 63.1217 33.495 62.2551 33.495C61.3884 33.495 60.5851 33.325 59.8451 32.985C59.1051 32.645 58.4617 32.125 57.9151 31.425C57.3751 30.7317 56.9517 29.8483 56.6451 28.775C56.3384 27.7083 56.1851 26.4517 56.1851 25.005C56.1851 23.545 56.3384 22.2817 56.6451 21.215C56.9517 20.1483 57.3751 19.2683 57.9151 18.575C58.4617 17.875 59.1051 17.355 59.8451 17.015C60.5851 16.675 61.3884 16.505 62.2551 16.505C63.1217 16.505 63.9284 16.675 64.6751 17.015C65.4217 17.355 66.0684 17.875 66.6151 18.575C67.1617 19.2683 67.5917 20.1483 67.9051 21.215C68.2184 22.2817 68.3751 23.545 68.3751 25.005ZM65.4351 25.005C65.4351 23.7983 65.3484 22.8017 65.1751 22.015C64.9951 21.2217 64.7584 20.5917 64.4651 20.125C64.1717 19.6583 63.8317 19.3317 63.4451 19.145C63.0651 18.9517 62.6684 18.855 62.2551 18.855C61.8484 18.855 61.4551 18.9517 61.0751 19.145C60.6951 19.3317 60.3584 19.6583 60.0651 20.125C59.7784 20.5917 59.5484 21.2217 59.3751 22.015C59.2017 22.8017 59.1151 23.7983 59.1151 25.005C59.1151 26.205 59.2017 27.2017 59.3751 27.995C59.5484 28.7817 59.7784 29.4083 60.0651 29.875C60.3584 30.3417 60.6951 30.6683 61.0751 30.855C61.4551 31.0483 61.8484 31.145 62.2551 31.145C62.6684 31.145 63.0651 31.0483 63.4451 30.855C63.8317 30.6683 64.1717 30.3417 64.4651 29.875C64.7584 29.4083 64.9951 28.7817 65.1751 27.995C65.3484 27.2017 65.4351 26.205 65.4351 25.005ZM86.6351 29.505L85.1251 30.995L81.2251 27.095L77.2951 31.015L75.7851 29.535L79.7251 25.585L75.9751 21.835L77.4651 20.345L81.2151 24.095L84.9451 20.365L86.4651 21.865L82.7251 25.595L86.6351 29.505ZM98.7151 19.265L98.1351 22.725C98.5017 22.645 98.8551 22.5883 99.1951 22.555C99.5284 22.5217 99.8517 22.505 100.165 22.505C101.038 22.505 101.808 22.635 102.475 22.895C103.148 23.155 103.708 23.515 104.155 23.975C104.608 24.435 104.952 24.975 105.185 25.595C105.412 26.2083 105.525 26.8717 105.525 27.585C105.525 28.4717 105.372 29.2783 105.065 30.005C104.752 30.7317 104.318 31.355 103.765 31.875C103.212 32.3883 102.558 32.7883 101.805 33.075C101.052 33.355 100.232 33.495 99.3451 33.495C98.8184 33.495 98.3217 33.4417 97.8551 33.335C97.3884 33.2283 96.9517 33.085 96.5451 32.905C96.1317 32.725 95.7517 32.5183 95.4051 32.285C95.0517 32.0517 94.7384 31.805 94.4651 31.545L95.3351 30.335C95.5217 30.075 95.7651 29.945 96.0651 29.945C96.2584 29.945 96.4517 30.005 96.6451 30.125C96.8451 30.2517 97.0751 30.3883 97.3351 30.535C97.5884 30.6817 97.8917 30.815 98.2451 30.935C98.5917 31.055 99.0117 31.115 99.5051 31.115C100.025 31.115 100.485 31.0317 100.885 30.865C101.278 30.6983 101.608 30.4617 101.875 30.155C102.142 29.855 102.342 29.495 102.475 29.075C102.608 28.6617 102.675 28.2083 102.675 27.715C102.675 26.8083 102.412 26.1017 101.885 25.595C101.358 25.0817 100.582 24.825 99.5551 24.825C98.7684 24.825 97.9617 24.9717 97.1351 25.265L95.3651 24.755L96.7451 16.685H104.955V17.895C104.955 18.3017 104.828 18.6317 104.575 18.885C104.322 19.1383 103.892 19.265 103.285 19.265H98.7151ZM119.565 25.005C119.565 26.4517 119.412 27.7083 119.105 28.775C118.792 29.8483 118.362 30.7317 117.815 31.425C117.268 32.125 116.622 32.645 115.875 32.985C115.128 33.325 114.322 33.495 113.455 33.495C112.588 33.495 111.785 33.325 111.045 32.985C110.305 32.645 109.662 32.125 109.115 31.425C108.568 30.7317 108.142 29.8483 107.835 28.775C107.528 27.7083 107.375 26.4517 107.375 25.005C107.375 23.545 107.528 22.2817 107.835 21.215C108.142 20.1483 108.568 19.2683 109.115 18.575C109.662 17.875 110.305 17.355 111.045 17.015C111.785 16.675 112.588 16.505 113.455 16.505C114.322 16.505 115.128 16.675 115.875 17.015C116.622 17.355 117.268 17.875 117.815 18.575C118.362 19.2683 118.792 20.1483 119.105 21.215C119.412 22.2817 119.565 23.545 119.565 25.005ZM116.635 25.005C116.635 23.7983 116.548 22.8017 116.375 22.015C116.195 21.2217 115.958 20.5917 115.665 20.125C115.372 19.6583 115.032 19.3317 114.645 19.145C114.265 18.9517 113.868 18.855 113.455 18.855C113.048 18.855 112.655 18.9517 112.275 19.145C111.895 19.3317 111.558 19.6583 111.265 20.125C110.972 20.5917 110.742 21.2217 110.575 22.015C110.402 22.8017 110.315 23.7983 110.315 25.005C110.315 26.205 110.402 27.2017 110.575 27.995C110.742 28.7817 110.972 29.4083 111.265 29.875C111.558 30.3417 111.895 30.6683 112.275 30.855C112.655 31.0483 113.048 31.145 113.455 31.145C113.868 31.145 114.265 31.0483 114.645 30.855C115.032 30.6683 115.372 30.3417 115.665 29.875C115.958 29.4083 116.195 28.7817 116.375 27.995C116.548 27.2017 116.635 26.205 116.635 25.005Z" fill="#999999"/>
</g>
<defs>
<clipPath id="clip0_249_257">
<rect width="150" height="50" fill="white"/>
</clipPath>
</defs>
</svg>
