<svg width="81" height="80" viewBox="0 0 81 80" fill="none" xmlns="http://www.w3.org/2000/svg">
<g style="mix-blend-mode:multiply">
<path d="M40.5639 79.1252C62.4791 79.1252 80.2449 61.537 80.2449 39.8409C80.2449 18.1448 62.4791 0.556641 40.5639 0.556641C18.6486 0.556641 0.882812 18.1448 0.882812 39.8409C0.882812 61.537 18.6486 79.1252 40.5639 79.1252Z" fill="white"/>
<path d="M40.5638 79.6801C18.3765 79.6801 0.321289 61.8055 0.321289 39.8401C0.321289 17.8747 18.3765 0 40.5638 0C62.751 0 80.8063 17.8747 80.8063 39.8401C80.8063 61.8055 62.751 79.6801 40.5638 79.6801ZM40.5638 1.11161C18.9941 1.11161 1.44413 18.4861 1.44413 39.8401C1.44413 61.1941 18.9941 78.5685 40.5638 78.5685C62.1335 78.5685 79.6834 61.1941 79.6834 39.8401C79.6834 18.4861 62.1335 1.11161 40.5638 1.11161Z" fill="#3C2B4A"/>
<path d="M46.2231 4.5465C46.4926 4.56873 46.7284 4.57984 46.9193 4.57984L46.8968 4.7577C46.5825 4.80217 46.313 5.0356 46.0996 5.48025L43.4273 10.7715L43.3487 10.7604L43.2813 10.7493L41.5858 4.84663C41.4735 4.45757 41.2827 4.24636 41.0132 4.21301L41.0356 4.03516C41.2827 4.07962 41.6083 4.11297 42.0125 4.15743C42.5402 4.2019 42.9332 4.23525 43.1915 4.23525L43.169 4.4131C42.9332 4.40199 42.7648 4.4131 42.6638 4.44645C42.5627 4.4798 42.5066 4.56873 42.4953 4.67989C42.4841 4.77993 42.5066 4.92444 42.5627 5.11342L43.809 9.62655L45.6617 5.93601C45.8189 5.63587 45.8975 5.39132 45.92 5.21346C45.9424 5.02449 45.8863 4.87998 45.7628 4.77993C45.6393 4.67989 45.4372 4.62431 45.1677 4.59096L45.1901 4.4131C45.5158 4.46868 45.8638 4.51315 46.2231 4.5465Z" fill="#3C2B4A"/>
<path d="M53.7688 6.89124C53.6565 6.89124 53.5667 6.9357 53.4993 7.02463C53.4319 7.11356 53.3533 7.25807 53.2747 7.46928L51.6691 11.6934C51.5905 11.9046 51.5456 12.0713 51.5456 12.1825C51.5456 12.2937 51.5793 12.3826 51.6579 12.4493C51.7365 12.516 51.8824 12.5938 52.0845 12.6827L52.0172 12.8495C51.7589 12.7383 51.3996 12.5938 50.9392 12.4159C50.4452 12.227 50.0747 12.1047 49.8276 12.0269L49.895 11.8601C50.1083 11.9268 50.2655 11.9602 50.3666 11.9602C50.4677 11.9602 50.5687 11.9157 50.6361 11.8268C50.7035 11.7379 50.782 11.5933 50.8606 11.3821L52.4663 7.15803C52.5449 6.94682 52.5898 6.78008 52.5898 6.66892C52.5898 6.55776 52.5561 6.46883 52.4775 6.40213C52.3989 6.33544 52.253 6.25762 52.0509 6.16869L52.1182 6.00195C52.354 6.102 52.7133 6.24651 53.2074 6.43548C53.6677 6.61334 54.0383 6.73562 54.3078 6.81343L54.2404 6.98017C54.0383 6.91347 53.8811 6.88012 53.7688 6.89124Z" fill="#3C2B4A"/>
<path d="M63.7617 12.7723C63.6494 12.7501 63.5371 12.7834 63.4361 12.8501C63.335 12.9168 63.2115 13.0502 63.0768 13.2392L59.8205 17.6078L59.6521 17.4855L60.09 10.4602L57.2043 14.3286C57.0696 14.5176 56.9798 14.6732 56.9348 14.7955C56.8899 14.9177 56.9124 15.0289 56.9685 15.1401C57.0247 15.2512 57.1594 15.3735 57.3503 15.5291L57.238 15.6736C57.0696 15.5291 56.8226 15.3401 56.4969 15.0956C56.205 14.8844 55.9692 14.7176 55.7896 14.6176L55.9018 14.4731C56.0815 14.5954 56.2275 14.6621 56.3397 14.6732C56.452 14.6954 56.5643 14.6621 56.6654 14.5954C56.7664 14.5176 56.8899 14.3953 57.0247 14.2063L59.6746 10.6492C59.8093 10.4602 59.8991 10.3157 59.9328 10.2156C59.9665 10.1156 59.9553 10.0155 59.8991 9.92661C59.843 9.83768 59.7307 9.72652 59.5511 9.58201L59.6633 9.4375C59.8093 9.57089 60.0339 9.74875 60.337 9.95996C60.5616 10.1267 60.7525 10.2601 60.9321 10.3601L60.5728 16.2517L62.9083 13.1169C63.0431 12.928 63.1441 12.7723 63.1778 12.6501C63.2115 12.5278 63.2003 12.4166 63.1441 12.3055C63.088 12.1943 62.9533 12.0609 62.7624 11.9164L62.8747 11.7719C63.0431 11.9164 63.2901 12.1054 63.6157 12.3499C63.9077 12.5611 64.1435 12.7279 64.3231 12.8279L64.2108 12.9724C64.0199 12.8613 63.874 12.7834 63.7617 12.7723Z" fill="#3C2B4A"/>
<path d="M67.5232 17.7864C67.8152 17.5752 68.1183 17.3418 68.444 17.0527C68.7247 17.4751 69.2187 18.1755 69.9261 19.1648C70.6335 20.143 71.1388 20.8322 71.4419 21.2324C71.0602 21.4547 70.7346 21.6548 70.4426 21.8549C70.1956 22.0327 69.9935 22.1884 69.8475 22.3106L69.724 22.1439C70.0833 21.8327 70.3303 21.577 70.4763 21.388C70.6223 21.199 70.6784 20.9989 70.6672 20.7877C70.656 20.5765 70.5212 20.3209 70.3079 20.0096L70.0159 19.6094L65.7604 22.6108C65.5583 22.7553 65.4123 22.8887 65.3449 22.9887C65.2776 23.0888 65.2551 23.211 65.3 23.3444C65.3337 23.4667 65.4348 23.6446 65.5807 23.8669L65.4348 23.9781C65.2663 23.7113 65.0081 23.3333 64.6712 22.8776C64.3119 22.3773 64.0424 22.0216 63.8628 21.7993L64.0088 21.6881C64.1772 21.8993 64.3119 22.0439 64.4242 22.1217C64.5365 22.1995 64.6488 22.2217 64.7723 22.1884C64.8958 22.155 65.0642 22.0661 65.2663 21.9216L69.5219 18.9202L69.23 18.5201C69.0054 18.2088 68.8033 18.0198 68.6124 17.9309C68.4215 17.842 68.2082 17.8309 67.9836 17.9087C67.759 17.9865 67.4334 18.131 67.018 18.3644L66.8945 18.1977C67.0629 18.1088 67.265 17.9754 67.5232 17.7864Z" fill="#3C2B4A"/>
<path d="M69.6788 33.2149L69.4992 33.2705C69.4318 33.0259 69.342 32.7147 69.2072 32.3367C69.0388 31.8476 68.9041 31.4808 68.803 31.2362L68.9827 31.1807C69.0613 31.3919 69.1511 31.5475 69.2184 31.6253C69.297 31.7031 69.3981 31.7253 69.5104 31.6809C69.6114 31.6475 69.735 31.5697 69.8809 31.4474L71.1273 30.4359L70.4199 28.3572L69.3756 28.3127C69.0388 28.2905 68.7805 28.3127 68.6009 28.3794C68.4212 28.4461 68.3089 28.5461 68.264 28.6906C68.2303 28.8352 68.2528 29.0464 68.3314 29.302L68.1518 29.3576C68.0619 29.0241 67.9496 28.6906 67.8374 28.3572C67.7475 28.1015 67.6689 27.8903 67.5903 27.7236L67.77 27.668C67.9272 27.9348 68.264 28.0793 68.7581 28.0904L74.7316 28.3572L74.7765 28.4906L70.0157 32.4145C69.7237 32.6924 69.6114 32.9481 69.6788 33.2149ZM73.5751 28.4906L70.6332 28.3683L71.2957 30.3247L73.5751 28.4906Z" fill="#3C2B4A"/>
<path d="M70.4987 41.7182C70.6109 41.6737 70.6671 41.6181 70.6671 41.5403C70.6671 41.4958 70.6558 41.4625 70.6334 41.4291C70.6109 41.3958 70.566 41.3291 70.4987 41.2402C70.3302 41.029 70.2067 40.8066 70.1169 40.5843C70.0271 40.362 69.9821 40.1063 69.9821 39.8284C69.9709 39.2059 70.0944 38.6723 70.3415 38.2166C70.5997 37.7608 70.959 37.4162 71.4531 37.1717C71.9359 36.9271 72.5198 36.8048 73.2047 36.7937C73.9121 36.7826 74.5296 36.8938 75.0574 37.1383C75.5851 37.3829 76.0006 37.7164 76.2925 38.161C76.5844 38.6057 76.7416 39.1059 76.7416 39.6617C76.7416 39.9062 76.7192 40.1286 76.6743 40.3175C76.6293 40.5065 76.562 40.6732 76.4834 40.8178C76.4048 40.9623 76.3037 41.129 76.169 41.3069C76.1128 41.3847 76.0792 41.4514 76.0792 41.4958C76.0792 41.607 76.27 41.6848 76.6406 41.7182V41.9294C76.2476 41.9071 75.5402 41.9071 74.5296 41.9294V41.7182C74.8553 41.6626 75.1247 41.5959 75.3381 41.5292C75.5514 41.4625 75.7311 41.3624 75.8883 41.2402C76.1016 41.0623 76.2813 40.8289 76.4048 40.5399C76.5283 40.2508 76.5844 39.9618 76.5844 39.6506C76.5732 39.2504 76.4385 38.9058 76.169 38.6056C75.8995 38.3055 75.5177 38.0832 75.0349 37.9165C74.5409 37.7608 73.9794 37.683 73.3282 37.6941C72.5871 37.7052 71.992 37.7942 71.5204 37.9609C71.0488 38.1277 70.712 38.3722 70.4874 38.6946C70.2629 39.0169 70.1618 39.4282 70.173 39.9285C70.1843 40.2953 70.2853 40.6065 70.4762 40.8733C70.5548 40.9845 70.6222 41.0512 70.7008 41.0845C70.7681 41.1179 70.8692 41.129 70.9927 41.129L71.8797 41.1179C72.138 41.1179 72.3177 41.0845 72.4412 41.0401C72.5534 40.9956 72.6433 40.9067 72.677 40.7733C72.7219 40.651 72.7443 40.4509 72.7443 40.1841H72.924C72.9128 40.4843 72.9015 40.9067 72.9128 41.4736C72.924 41.896 72.9352 42.2184 72.9577 42.4185H72.778C72.7668 42.274 72.7331 42.1739 72.6994 42.1183C72.6657 42.0628 72.5871 42.0183 72.4861 41.9961C72.385 41.9738 72.2166 41.9627 71.9808 41.9738L70.1618 42.0072V41.8293C70.2629 41.7849 70.3864 41.7626 70.4987 41.7182Z" fill="#3C2B4A"/>
<path d="M69.1629 51.1778C68.8372 51.0777 68.4555 50.9777 68.0176 50.8887C68.1635 50.4997 68.3769 49.8438 68.6801 48.9101C69.0394 47.7985 69.2976 46.9536 69.4548 46.3867L69.6345 46.4423C69.5783 46.6535 69.5559 46.8091 69.5559 46.9203C69.5671 47.0315 69.612 47.1093 69.7018 47.176C69.7917 47.2427 69.9489 47.3094 70.1622 47.3761L74.5076 48.7322C74.7321 48.7989 74.8893 48.8323 75.0016 48.8323C75.1139 48.8323 75.2037 48.7878 75.2711 48.6989C75.3385 48.6099 75.4058 48.4654 75.4844 48.2653L75.6641 48.3209C75.462 48.8878 75.1925 49.7215 74.8332 50.8332C74.5637 51.678 74.3728 52.2894 74.283 52.6562C73.9125 52.5006 73.5756 52.3672 73.2612 52.2782C73.0367 52.2115 72.8458 52.156 72.711 52.1337L72.7784 51.9336C73.1714 52.0115 73.4746 52.0448 73.6767 52.0448C73.8788 52.0448 74.0472 51.9781 74.182 51.8447C74.3167 51.7224 74.429 51.5001 74.53 51.2L74.7546 50.4774C74.822 50.2662 74.8557 50.1106 74.8444 50.0106C74.8332 49.9105 74.7995 49.8216 74.7097 49.7549C74.6199 49.6882 74.4739 49.6215 74.2493 49.5548L72.1833 48.9101L72.0036 49.4881C71.9138 49.7771 71.9363 49.9994 72.0822 50.1551C72.2282 50.3107 72.3854 50.4219 72.5651 50.4997C72.7447 50.5775 72.857 50.6331 72.9019 50.6553L72.8346 50.8554C72.5538 50.7442 72.2844 50.6442 72.0149 50.5664L71.5994 50.4441C71.3075 50.3552 70.8808 50.2329 70.3419 50.1106L70.4092 49.9105C70.4541 49.9216 70.6001 49.9439 70.8471 49.9994C71.0942 50.0439 71.3075 50.0217 71.4759 49.9327C71.6443 49.8438 71.7566 49.6771 71.8352 49.4436L72.0149 48.8656L69.9039 48.2098C69.6794 48.1431 69.5222 48.1097 69.4099 48.1097C69.2976 48.1097 69.2078 48.1542 69.1516 48.2431C69.0843 48.332 69.0169 48.4765 68.9495 48.6877L68.7474 49.3214C68.6351 49.6882 68.5902 49.9772 68.6351 50.1884C68.6688 50.4107 68.7811 50.5886 68.972 50.7442C69.1629 50.8887 69.4548 51.0555 69.8478 51.2333L69.7804 51.4334C69.6457 51.3334 69.4324 51.2667 69.1629 51.1778Z" fill="#3C2B4A"/>
<path d="M65.9625 64.8174C66.0074 64.7173 65.9962 64.6173 65.9512 64.5172C65.9063 64.4172 65.794 64.2949 65.6256 64.1282L62.3245 61.0045C62.1561 60.8489 62.0213 60.7489 61.9203 60.7044C61.8192 60.6599 61.7181 60.6599 61.6171 60.7044C61.516 60.7489 61.3925 60.8489 61.2353 61.0045L61.1006 60.8823C61.3139 60.6933 61.5834 60.4154 61.9315 60.0708C62.2908 59.6928 62.5603 59.4038 62.7287 59.2148L62.8634 59.3371C62.7175 59.5039 62.6276 59.6373 62.5827 59.7262C62.5378 59.8262 62.549 59.9263 62.594 60.0263C62.6389 60.1264 62.7512 60.2486 62.9196 60.4154L66.2207 63.539C66.3891 63.6946 66.5239 63.7947 66.6249 63.8391C66.726 63.8836 66.8271 63.8836 66.9281 63.8391C67.0292 63.7947 67.1527 63.6946 67.3099 63.539L67.4446 63.6613C67.2537 63.828 66.973 64.1059 66.6137 64.4839C66.2656 64.8396 66.0074 65.1286 65.8277 65.3398L65.693 65.2175C65.8277 65.0508 65.9176 64.9174 65.9625 64.8174Z" fill="#3C2B4A"/>
<path d="M56.6093 71.5985C56.6767 71.4985 56.6879 71.3985 56.6655 71.2762C56.643 71.1539 56.5644 70.9983 56.4409 70.7871L53.6562 66.1072L53.8359 65.996L60.1912 69.1419L57.7322 65.0067C57.6086 64.8066 57.5076 64.6621 57.4065 64.5843C57.3055 64.5065 57.1932 64.4731 57.0697 64.4842C56.9462 64.4954 56.7777 64.5621 56.5644 64.6732L56.4633 64.5176C56.6655 64.4287 56.9349 64.273 57.283 64.0729C57.5974 63.884 57.8332 63.7395 58.0016 63.6172L58.0915 63.7728C57.9118 63.884 57.7883 63.9951 57.7322 64.0952C57.6648 64.1952 57.6536 64.2953 57.676 64.4175C57.6985 64.5398 57.7771 64.6954 57.9006 64.9067L60.1687 68.7195C60.281 68.9196 60.382 69.053 60.4719 69.1197C60.5617 69.1863 60.6515 69.2197 60.7638 69.1975C60.8649 69.1752 61.0221 69.1197 61.2129 69.0196L61.3028 69.1752C61.1231 69.2642 60.8761 69.3976 60.5505 69.5865C60.3147 69.7199 60.1126 69.8533 59.9441 69.9645L54.6107 67.33L56.6093 70.687C56.7328 70.8871 56.8339 71.0316 56.9349 71.1094C57.0248 71.1872 57.137 71.2206 57.2718 71.2095C57.4065 71.1984 57.575 71.1317 57.7883 71.0205L57.8781 71.1761C57.676 71.2651 57.4065 71.4207 57.0584 71.6208C56.7441 71.8097 56.5083 71.9543 56.3398 72.0765L56.25 71.9209C56.4184 71.7986 56.5419 71.6875 56.6093 71.5985Z" fill="#3C2B4A"/>
<path d="M50.4336 73.0545C50.5122 73.3991 50.6133 73.7771 50.748 74.1773C50.2427 74.2662 49.4006 74.4441 48.2104 74.6886C47.0202 74.9443 46.1893 75.1332 45.6952 75.2555C45.6391 74.822 45.583 74.4441 45.5044 74.0995C45.437 73.7993 45.3808 73.5548 45.3135 73.3769L45.5156 73.3324C45.6616 73.7882 45.7963 74.1106 45.9198 74.3218C46.0433 74.533 46.2005 74.6664 46.4026 74.7331C46.6047 74.7998 46.8967 74.7886 47.2672 74.7108L47.75 74.6108L46.6497 69.553C46.5935 69.3084 46.5374 69.1306 46.4588 69.0305C46.3802 68.9305 46.2903 68.8638 46.1556 68.8527C46.0209 68.8304 45.8188 68.8527 45.5493 68.8971L45.5156 68.7193C45.83 68.6748 46.2791 68.5859 46.8405 68.4636C47.4356 68.3302 47.8848 68.2302 48.1655 68.1523L48.1992 68.3302C47.9297 68.3969 47.75 68.4636 47.6377 68.5303C47.5255 68.597 47.4581 68.697 47.4356 68.8193C47.4132 68.9416 47.4244 69.1306 47.4806 69.3751L48.5809 74.4329L49.0638 74.3329C49.4343 74.2551 49.7038 74.1439 49.861 73.9994C50.0182 73.8549 50.108 73.6659 50.1305 73.4325C50.1529 73.199 50.1417 72.8433 50.0855 72.3765L50.2876 72.332C50.3213 72.5098 50.3662 72.7544 50.4336 73.0545Z" fill="#3C2B4A"/>
<path d="M35.5336 69.9309C35.5673 69.5863 35.5785 69.1972 35.5785 68.7637C35.994 68.8193 36.6902 68.8859 37.6783 68.9749C38.846 69.0749 39.733 69.1527 40.3394 69.1861L40.3281 69.3639C40.1036 69.3528 39.9464 69.3639 39.8453 69.3973C39.7443 69.4306 39.6657 69.4862 39.6208 69.5863C39.5758 69.6863 39.5422 69.853 39.5197 70.0754L39.1155 74.5774C39.093 74.7997 39.1043 74.9665 39.1267 75.0776C39.1492 75.1888 39.2165 75.2666 39.3176 75.311C39.4186 75.3555 39.5758 75.4 39.7892 75.4222L39.778 75.6001C39.1829 75.5334 38.2958 75.4444 37.1281 75.3444C36.2298 75.2666 35.5898 75.2221 35.208 75.1999C35.2866 74.8108 35.3427 74.4551 35.3652 74.1327C35.3877 73.8993 35.3989 73.7103 35.3877 73.5658L35.601 73.5881C35.6122 73.9882 35.6347 74.2773 35.6908 74.4773C35.7357 74.6774 35.8368 74.8219 35.994 74.922C36.14 75.022 36.387 75.0887 36.7014 75.111L37.4649 75.1777C37.6895 75.1999 37.8467 75.1888 37.9477 75.1665C38.0488 75.1443 38.1274 75.0776 38.1723 74.9776C38.2172 74.8775 38.2509 74.7108 38.2734 74.4885L38.4642 72.3542L37.8579 72.2986C37.5547 72.2764 37.3414 72.343 37.2179 72.5209C37.1056 72.6988 37.0158 72.8766 36.9821 73.0656C36.9372 73.2546 36.9147 73.3768 36.9035 73.4324L36.6902 73.4102C36.7351 73.1101 36.7688 72.8322 36.8024 72.5543L36.8361 72.1207C36.8586 71.8095 36.881 71.3871 36.9035 70.8313L37.1168 70.8535C37.1168 70.898 37.1281 71.0425 37.1281 71.2981C37.1393 71.5538 37.1954 71.7539 37.3302 71.8873C37.4537 72.0318 37.6446 72.1096 37.8916 72.1318L38.4979 72.1874L38.6888 70.0087C38.7113 69.7864 38.7 69.6196 38.6776 69.5084C38.6551 69.4084 38.5878 69.3306 38.4867 69.2861C38.3856 69.2417 38.2284 69.2083 38.0151 69.1861L37.3414 69.1305C36.9596 69.0972 36.6677 69.1194 36.4544 69.2083C36.2522 69.2861 36.095 69.4418 35.9828 69.653C35.8705 69.8642 35.7807 70.1865 35.6908 70.6089L35.4775 70.5867C35.4775 70.42 35.4999 70.1976 35.5336 69.9309Z" fill="#3C2B4A"/>
<path d="M26.6969 65.8076C26.8653 65.7743 27.0562 65.8076 27.2583 65.8965C27.4941 65.9966 27.6513 66.1411 27.7412 66.3301C27.831 66.5302 27.8422 66.8081 27.7861 67.1749L27.6177 68.0864C27.5615 68.4088 27.5278 68.6533 27.5166 68.8423C27.5054 69.0202 27.5503 69.1869 27.6289 69.3314C27.7075 69.4759 27.8534 69.5871 28.0668 69.676L28.8752 70.0095L29.6949 68.0753C29.7847 67.8641 29.8296 67.7085 29.8409 67.5973C29.8521 67.4861 29.8072 67.3972 29.7286 67.3194C29.65 67.2416 29.5152 67.1638 29.3131 67.0748L29.3805 66.9081C29.6388 67.0304 29.9868 67.186 30.4472 67.375C30.93 67.5751 31.3006 67.7196 31.5476 67.7974L31.4802 67.9641C31.2669 67.8863 31.1097 67.853 31.0086 67.8418C30.8963 67.8418 30.8065 67.8752 30.7391 67.9641C30.6605 68.0419 30.5819 68.1864 30.4921 68.3977L28.7293 72.5662C28.6394 72.7774 28.5945 72.933 28.5833 73.0442C28.5721 73.1553 28.617 73.2443 28.6956 73.3221C28.7742 73.3999 28.9089 73.4777 29.111 73.5778L29.0437 73.7445C28.8079 73.6333 28.471 73.4777 28.0219 73.2887C27.7973 73.1998 27.5615 73.0998 27.292 72.9886C27.0225 72.8774 26.8429 72.8107 26.7418 72.7663C26.3039 72.5773 25.9559 72.3661 25.6976 72.1104C25.4393 71.8548 25.2934 71.588 25.226 71.299C25.1586 71.0099 25.1923 70.732 25.3158 70.4541C25.4057 70.2318 25.5516 70.0317 25.7537 69.8539C25.9559 69.676 26.2141 69.5426 26.5285 69.4759C26.8429 69.4092 27.2247 69.4203 27.6401 69.5204L27.5391 69.4648C27.3033 69.3203 27.1236 69.1758 27.0113 69.0202C26.899 68.8756 26.8204 68.7089 26.798 68.531C26.7643 68.3532 26.7755 68.1309 26.8204 67.8641L26.9776 66.9192C27.0113 66.7302 27.0338 66.5857 27.0338 66.4746C27.0338 66.3634 27.0225 66.2745 26.9889 66.2078C26.9552 66.1411 26.899 66.0855 26.8204 66.0633C26.7306 66.0188 26.6408 66.0188 26.5622 66.041C26.4836 66.0633 26.3713 66.1189 26.2253 66.1967L26.1355 66.0522C26.3376 65.9299 26.5285 65.841 26.6969 65.8076ZM27.2583 69.7649C26.9889 69.7983 26.7755 69.8983 26.6071 70.0651C26.4387 70.2318 26.2927 70.4541 26.1692 70.7431C25.9783 71.1989 25.9334 71.5991 26.0569 71.9215C26.1804 72.2438 26.4836 72.5106 26.9889 72.7218C27.1685 72.7996 27.3033 72.833 27.4155 72.8219C27.5166 72.8219 27.6064 72.7774 27.685 72.6885C27.7636 72.5995 27.8422 72.455 27.9208 72.2549L28.7966 70.1873L28.224 69.9539C27.8534 69.7983 27.5278 69.7316 27.2583 69.7649Z" fill="#3C2B4A"/>
<path d="M17.9384 67.3194C18.0394 67.3527 18.1405 67.3305 18.2303 67.2749C18.3201 67.2193 18.4437 67.0971 18.5896 66.9192L21.4079 63.362C21.5539 63.1842 21.6437 63.0397 21.6774 62.9396C21.7111 62.8396 21.6999 62.7395 21.6437 62.6506C21.5876 62.5617 21.4753 62.4394 21.3069 62.2949L21.4192 62.1504C21.6325 62.3394 21.9244 62.5839 22.3174 62.8841C22.7329 63.2064 23.0473 63.4399 23.2606 63.5844L23.1483 63.7289C22.9687 63.5955 22.8227 63.5177 22.7217 63.4954C22.6206 63.4621 22.5196 63.4732 22.4297 63.5399C22.3399 63.5955 22.2164 63.7178 22.0704 63.8956L19.2521 67.4528C19.1061 67.6306 19.0163 67.7751 18.9826 67.8752C18.9489 67.9752 18.9602 68.0753 19.0163 68.1642C19.0724 68.2531 19.1847 68.3754 19.3532 68.5199L19.2409 68.6644C19.05 68.4977 18.7468 68.2531 18.3314 67.9196C17.9384 67.6195 17.624 67.3861 17.3994 67.2304L17.5117 67.0859C17.7026 67.2082 17.8373 67.286 17.9384 67.3194Z" fill="#3C2B4A"/>
<path d="M10.6854 59.4053C10.6405 58.905 10.7528 58.4048 11.0111 57.9268C11.2805 57.4377 11.6848 57.0042 12.2462 56.5929C12.7964 56.2038 13.3466 55.9482 13.9192 55.8481C14.4919 55.7481 15.0196 55.7814 15.5136 55.9704C16.0077 56.1594 16.4231 56.4817 16.7488 56.9375C17.0968 57.4044 17.2877 57.8935 17.3326 58.3937C17.3775 58.8939 17.2653 59.3942 17.007 59.8721C16.7375 60.3613 16.3333 60.7948 15.7719 61.2061C15.2217 61.5951 14.6715 61.8508 14.0989 61.9509C13.5374 62.0509 12.9985 62.0176 12.5044 61.8286C12.0104 61.6396 11.5949 61.3172 11.2693 60.8726C10.9212 60.3946 10.7304 59.9055 10.6854 59.4053ZM12.3697 61.3839C12.7627 61.4617 13.2118 61.4284 13.7059 61.2728C14.1999 61.1171 14.694 60.8615 15.2105 60.4835C15.727 60.1167 16.1312 59.7165 16.4119 59.2941C16.7038 58.8717 16.861 58.4493 16.8835 58.0491C16.9172 57.6489 16.8161 57.2932 16.6028 56.9931C16.367 56.6818 16.0638 56.4817 15.6596 56.4039C15.2666 56.3261 14.8175 56.3595 14.3234 56.5151C13.8294 56.6707 13.3353 56.9264 12.8188 57.2932C12.3023 57.66 11.8981 58.0602 11.6174 58.4938C11.3255 58.9162 11.1683 59.3275 11.1346 59.7388C11.1009 60.1389 11.2019 60.4946 11.4153 60.7948C11.6511 61.106 11.9655 61.3061 12.3697 61.3839Z" fill="#3C2B4A"/>
<path d="M11.5496 46.0207C11.6844 46.1207 11.7854 46.2875 11.8528 46.5098C11.9314 46.7432 11.9202 46.9656 11.8303 47.1545C11.7405 47.3546 11.5272 47.5436 11.2015 47.7326L10.3819 48.1883C10.1012 48.3551 9.88782 48.4885 9.74185 48.5996C9.59589 48.7108 9.49483 48.8442 9.43869 48.9998C9.38255 49.1554 9.38255 49.3333 9.44992 49.5556L9.70817 50.3893L11.7293 49.7668C11.9538 49.7001 12.0998 49.6334 12.1896 49.5667C12.2795 49.5 12.3244 49.4111 12.3356 49.3111C12.3468 49.211 12.3132 49.0443 12.257 48.8331L12.4367 48.7775C12.504 49.0443 12.6051 49.4222 12.7623 49.8891C12.9195 50.3893 13.043 50.7561 13.1328 50.9896L12.9532 51.0452C12.8746 50.834 12.8072 50.6894 12.7398 50.6116C12.6725 50.5338 12.5826 50.4782 12.4703 50.4782C12.3581 50.4782 12.1896 50.5005 11.9763 50.5783L7.61969 51.9122C7.39512 51.9789 7.24915 52.0456 7.15933 52.1123C7.0695 52.179 7.02459 52.2679 7.01336 52.368C7.00213 52.4791 7.03582 52.6348 7.09196 52.846L6.9123 52.9016C6.85616 52.657 6.75511 52.3013 6.60914 51.8344C6.54177 51.6121 6.45194 51.3564 6.36211 51.0896C6.27229 50.8228 6.20492 50.6339 6.17123 50.5338C6.02526 50.0781 5.98035 49.6779 6.01403 49.3222C6.04772 48.9665 6.16 48.6774 6.33966 48.444C6.51931 48.2106 6.75511 48.0549 7.04704 47.966C7.27161 47.8993 7.51864 47.8771 7.78812 47.9104C8.0576 47.9438 8.31585 48.0549 8.58533 48.255C8.85481 48.4551 9.07938 48.7441 9.27026 49.1332L9.25903 49.022C9.22535 48.7441 9.21412 48.5218 9.25903 48.3328C9.30395 48.1439 9.38255 47.9882 9.49483 47.8548C9.61834 47.7215 9.79799 47.5769 10.0338 47.4436L10.8647 46.9544C11.0331 46.8655 11.1679 46.7766 11.2465 46.7099C11.3251 46.6432 11.3924 46.5765 11.4261 46.5098C11.4598 46.4431 11.4598 46.3653 11.4373 46.2875C11.4037 46.1874 11.3587 46.1207 11.2914 46.0763C11.224 46.0318 11.1117 45.9762 10.9545 45.9206L11.0107 45.7539C11.2352 45.8317 11.4261 45.9206 11.5496 46.0207ZM8.86604 48.9998C8.67516 48.8219 8.45059 48.7219 8.2148 48.6997C7.979 48.6774 7.70952 48.7108 7.40635 48.8108C6.92353 48.9553 6.59791 49.1888 6.41826 49.4889C6.2386 49.789 6.2386 50.2003 6.3958 50.7006C6.45194 50.8784 6.51931 51.0118 6.58668 51.0896C6.65405 51.1674 6.75511 51.2119 6.86739 51.2119C6.97967 51.2119 7.1481 51.1786 7.35021 51.123L9.50606 50.456L9.3264 49.8669C9.21412 49.4667 9.05692 49.1777 8.86604 48.9998Z" fill="#3C2B4A"/>
<path d="M10.6852 35.4721C11.1119 35.2831 11.3702 34.9274 11.4825 34.3938C11.5161 34.1937 11.5161 33.9936 11.46 33.8046C11.4039 33.6157 11.3028 33.4489 11.1456 33.3044C10.9884 33.1599 10.7751 33.0599 10.4944 33.0154C10.2586 32.9709 10.0452 32.9932 9.84312 33.071C9.64101 33.1488 9.4389 33.2711 9.24802 33.4378C9.05713 33.6046 8.83257 33.8269 8.58554 34.1048C8.30483 34.416 8.05781 34.6717 7.84447 34.8496C7.63113 35.0385 7.39534 35.1719 7.13708 35.272C6.87883 35.372 6.58689 35.3831 6.26127 35.3276C5.92442 35.2609 5.64371 35.1386 5.4416 34.9385C5.23949 34.7384 5.09352 34.505 5.02615 34.2271C4.95878 33.9492 4.95878 33.6601 5.01492 33.3489C5.0486 33.1599 5.09352 33.0154 5.14966 32.882C5.2058 32.7486 5.26194 32.6486 5.32931 32.5708C5.39668 32.4929 5.46405 32.404 5.55388 32.3151C5.66617 32.1928 5.72231 32.1039 5.74476 32.0372C5.75599 31.9816 5.73354 31.9371 5.67739 31.8927C5.62125 31.8482 5.5202 31.8149 5.38546 31.7704L5.41914 31.5703C5.76722 31.6592 6.37355 31.7926 7.26059 31.9594L7.22691 32.1595C6.91252 32.1261 6.62058 32.1372 6.32864 32.2039C6.04793 32.2595 5.80091 32.3818 5.59879 32.5708C5.39668 32.7486 5.26194 33.0043 5.2058 33.3155C5.16089 33.5267 5.17212 33.7157 5.22826 33.9047C5.2844 34.0937 5.38546 34.2382 5.5202 34.3605C5.66617 34.4827 5.83459 34.5605 6.0367 34.605C6.36232 34.6606 6.64303 34.6161 6.87883 34.4605C7.11463 34.3049 7.33919 34.1048 7.55253 33.8713C7.76587 33.6379 7.90061 33.4823 7.97921 33.4045C8.2936 33.071 8.55186 32.8153 8.7652 32.6263C8.97854 32.4374 9.21433 32.304 9.47258 32.215C9.73084 32.1261 10.0115 32.115 10.3147 32.1706C10.6852 32.2373 10.9884 32.3818 11.213 32.593C11.4375 32.8153 11.5835 33.071 11.6621 33.3822C11.7407 33.6935 11.7407 34.027 11.6733 34.3827C11.6172 34.6717 11.5498 34.894 11.4488 35.0719C11.359 35.2497 11.2354 35.4054 11.1007 35.5499C10.9884 35.6722 10.9323 35.7611 10.9098 35.8278C10.8986 35.8834 10.921 35.9278 10.9772 35.9723C11.0333 36.0167 11.1344 36.0612 11.2691 36.0946L11.2354 36.2947C10.9098 36.2057 10.1912 36.0612 9.07959 35.8611L9.11328 35.661C9.74206 35.7166 10.2586 35.661 10.6852 35.4721Z" fill="#3C2B4A"/>
<path d="M8.4622 26.1006C8.14781 25.9339 7.7885 25.7783 7.38428 25.6227C7.6313 25.1891 8.04675 24.4332 8.60817 23.355C9.16959 22.2878 9.56258 21.5319 9.77592 21.0762C10.1465 21.3096 10.4833 21.5097 10.7865 21.6653C11.056 21.8098 11.2918 21.9099 11.4714 21.9877L11.3703 22.1767C10.9212 21.9988 10.5844 21.8876 10.3486 21.8543C10.1128 21.8098 9.89943 21.8543 9.71978 21.9655C9.54012 22.0766 9.36047 22.2989 9.19205 22.6324L8.96748 23.0771L13.6048 25.467C13.8294 25.5893 14.009 25.6449 14.1325 25.656C14.256 25.6671 14.3683 25.6338 14.4694 25.5448C14.5704 25.4559 14.6827 25.2892 14.8175 25.0557L14.9859 25.1447C14.8175 25.4226 14.6041 25.8116 14.3346 26.323C14.0539 26.8565 13.8518 27.2678 13.7283 27.5235L13.5599 27.4346C13.6722 27.19 13.7508 27.001 13.762 26.8788C13.7845 26.7454 13.7508 26.6342 13.6609 26.5342C13.5711 26.4341 13.4251 26.3341 13.2006 26.2118L8.56326 23.8107L8.32746 24.2443C8.14781 24.5777 8.06921 24.8445 8.08044 25.0557C8.09166 25.2669 8.18149 25.4559 8.34992 25.6227C8.51834 25.7894 8.79905 26.0117 9.20327 26.2674L9.10222 26.4564C8.95625 26.3674 8.73168 26.2452 8.4622 26.1006Z" fill="#3C2B4A"/>
<path d="M16.389 13.3283C16.5799 13.1394 16.7371 12.9615 16.8494 12.8281L16.9841 12.9615C16.9168 13.0616 16.8831 13.2061 16.8943 13.3728C16.9055 13.5396 16.9504 13.773 17.0403 14.0509L18.0621 17.0634L19.2523 18.2305C19.4207 18.3862 19.5442 18.4973 19.6452 18.5418C19.7463 18.5863 19.8474 18.5863 19.9484 18.5418C20.0495 18.4973 20.173 18.3973 20.3414 18.2528L20.4762 18.3862C20.2628 18.5751 19.9821 18.8419 19.634 19.1865C19.2635 19.5534 18.994 19.8424 18.8256 20.0314L18.6908 19.898C18.8368 19.7312 18.9379 19.6089 18.9828 19.5089C19.0277 19.4088 19.0277 19.3088 18.9715 19.2088C18.9266 19.1087 18.8144 18.9753 18.6572 18.8197L17.6691 17.8526L13.9188 16.7632C13.6942 16.6965 13.5258 16.6743 13.4135 16.6854C13.3012 16.6965 13.2226 16.7299 13.1665 16.7855L13.0317 16.6521C13.2114 16.4964 13.4135 16.3186 13.6156 16.1074C14.0311 15.685 14.3342 15.3848 14.5027 15.1847L14.6374 15.3181C14.3342 15.6183 14.2669 15.8517 14.4353 16.0184C14.5027 16.0851 14.5925 16.1296 14.7272 16.1741L17.8824 17.1412L17.0515 14.6845C16.928 14.3288 16.8045 14.0842 16.6697 13.962C16.5462 13.8397 16.4115 13.8063 16.2655 13.8508C16.1195 13.8953 15.9511 14.0064 15.749 14.1954L15.6143 14.062C15.8837 13.8175 16.1308 13.5729 16.389 13.3283Z" fill="#3C2B4A"/>
<path d="M23.1828 8.84894C23.1154 8.92675 23.0817 9.0268 23.1042 9.13796C23.1266 9.24912 23.1828 9.40475 23.2951 9.60484L25.4621 13.5844C25.5744 13.7845 25.6642 13.9179 25.7541 13.9957C25.8327 14.0735 25.9337 14.0957 26.0348 14.0846C26.1358 14.0735 26.293 14.0068 26.4839 13.9068L27.079 13.5844C27.4159 13.4065 27.6517 13.2176 27.7752 13.0286C27.8987 12.8396 27.9436 12.6284 27.9099 12.3727C27.8762 12.1171 27.7752 11.7947 27.5955 11.3723L27.7864 11.2722C27.865 11.4501 27.9773 11.6724 28.1233 11.9392C28.2917 12.2393 28.4938 12.5728 28.7408 12.9397C28.3703 13.1175 27.7415 13.4399 26.8769 13.9068C25.8439 14.4626 25.0579 14.885 24.5414 15.1851L24.4516 15.0295C24.6425 14.9183 24.7772 14.8183 24.8446 14.7405C24.9119 14.6627 24.9456 14.5626 24.9232 14.4514C24.9007 14.3403 24.8446 14.1847 24.7323 13.9846L22.5428 10.005C22.4305 9.80492 22.3407 9.67153 22.2508 9.59372C22.1722 9.51591 22.0712 9.49367 21.9701 9.50479C21.8578 9.51591 21.7119 9.57149 21.5098 9.67153L21.4312 9.50479C21.6669 9.40475 22.015 9.22689 22.4754 8.97122C22.9133 8.73778 23.2501 8.54881 23.4859 8.4043L23.5758 8.55992C23.3849 8.67108 23.2614 8.77113 23.1828 8.84894Z" fill="#3C2B4A"/>
<path d="M36.8588 9.56081C36.9262 9.89429 37.0272 10.2722 37.1507 10.6947C36.7353 10.7613 36.0504 10.8836 35.0847 11.0726C33.9282 11.2949 33.0636 11.4728 32.4685 11.6062L32.4348 11.4283C32.6482 11.3727 32.8054 11.3283 32.8952 11.2616C32.985 11.206 33.0412 11.1171 33.0524 11.017C33.0636 10.9059 33.0524 10.7391 33.0075 10.5168L32.1317 6.08148C32.0868 5.85915 32.0418 5.70353 31.9745 5.60348C31.9071 5.50344 31.8397 5.44786 31.7274 5.43674C31.6264 5.41451 31.458 5.42563 31.2446 5.45897L31.2109 5.28112C31.806 5.18107 32.6819 5.02545 33.8271 4.80313C34.7142 4.62527 35.343 4.50299 35.7023 4.41406C35.736 4.81424 35.7921 5.16996 35.8483 5.48121C35.8932 5.71464 35.9381 5.8925 35.983 6.0259L35.7809 6.07036C35.6574 5.69241 35.5451 5.41451 35.444 5.23665C35.343 5.0588 35.197 4.94763 35.0286 4.89205C34.8489 4.83647 34.6131 4.83647 34.2875 4.90317L33.5352 5.04768C33.3219 5.09214 33.1647 5.13661 33.0748 5.19219C32.985 5.24777 32.9289 5.32558 32.9064 5.43674C32.8952 5.5479 32.9064 5.71465 32.9513 5.93697L33.3668 8.04902L33.9619 7.92675C34.2651 7.87117 34.4447 7.73777 34.5121 7.53768C34.5795 7.33759 34.6019 7.14862 34.5907 6.95965C34.5795 6.77067 34.5682 6.6484 34.5682 6.59282L34.7703 6.54835C34.804 6.84849 34.8489 7.12639 34.9051 7.39317L34.9949 7.81559C35.051 8.11572 35.1521 8.53813 35.2981 9.0717L35.096 9.11617C35.0847 9.0717 35.0398 8.93831 34.9612 8.69376C34.8826 8.4492 34.7703 8.28246 34.6019 8.18242C34.4335 8.08237 34.2426 8.06014 33.9956 8.1046L33.4005 8.21576L33.8271 10.3612C33.8721 10.5835 33.917 10.7391 33.9731 10.8392C34.0293 10.9281 34.1079 10.9837 34.2201 11.0059C34.3212 11.017 34.4896 11.0059 34.703 10.9614L35.3654 10.828C35.736 10.7502 36.0167 10.6502 36.1963 10.5168C36.376 10.3834 36.477 10.1944 36.522 9.96099C36.5669 9.72755 36.5669 9.39407 36.5332 8.96054L36.7353 8.91608C36.769 9.08282 36.8027 9.29403 36.8588 9.56081Z" fill="#3C2B4A"/>
<path d="M29.2906 52.0116C28.7741 51.3224 28.325 50.5665 27.932 49.7328C27.539 48.899 27.2246 48.0542 26.9888 47.1872C26.4723 43.3743 26.4611 39.6727 26.9439 36.0822C27.4267 32.4917 28.2127 28.9568 29.2906 25.4663C29.4703 25.0773 29.8633 24.8883 30.4696 24.8883C31.0759 24.8883 31.671 25.0217 32.2774 25.2885C32.8837 25.5553 33.3778 25.911 33.7707 26.3556C34.1637 26.8003 34.2536 27.2671 34.0402 27.7451C33.7034 28.4566 33.3778 29.4237 33.0521 30.6242C32.7265 31.8358 32.4009 33.1698 32.1089 34.626C31.8058 36.0822 31.5475 37.6162 31.323 39.2058C31.0984 40.7954 30.93 42.3294 30.8289 43.7856C30.7279 45.2418 30.7054 46.5647 30.7615 47.743C30.8177 48.9213 30.9973 49.855 31.3005 50.5331C32.7153 48.6545 34.0065 46.7092 35.1855 44.6972C36.3645 42.6852 37.4649 40.6509 38.4979 38.5722C39.5309 36.5046 40.519 34.4148 41.451 32.2916C42.3829 30.1795 43.3036 28.0897 44.2019 26.0332C44.651 24.9883 45.1002 23.8878 45.5381 22.7318C45.976 21.5646 46.5486 20.5752 47.2785 19.7415C47.5816 19.4748 47.8174 19.3858 47.9746 19.4748C48.1431 19.5637 48.2554 19.7304 48.3115 19.9861C48.3676 20.2418 48.4013 20.5086 48.4013 20.7865C48.4013 21.0644 48.4013 21.2867 48.4013 21.4312C48.188 22.7985 48.0083 24.1546 47.8624 25.4997C47.7164 26.8447 47.3908 28.1342 46.9192 29.3903C46.1332 31.3579 45.336 33.3032 44.5051 35.2485C43.6742 37.1827 42.7871 39.0947 41.8439 40.9733C40.9008 42.8519 39.8678 44.6749 38.7786 46.4424C37.6782 48.221 36.488 49.9106 35.1855 51.5113C34.1637 52.7897 33.142 53.4678 32.1426 53.5456C31.0984 53.6345 30.1664 53.112 29.2906 52.0116Z" fill="#3C2B4A" stroke="white" stroke-miterlimit="10"/>
<path d="M47.8847 46.9645C47.2784 46.1308 46.6833 45.286 46.0994 44.4189C45.5155 43.5519 45.2236 42.607 45.2236 41.5621C45.2236 40.406 45.5604 39.3055 46.2341 38.2717C46.9078 37.249 47.6826 36.4153 48.5584 35.7928C48.9177 35.5594 49.2883 35.3593 49.6588 35.2148C50.0293 35.0703 50.4336 35.0814 50.8602 35.2593C51.0399 35.3482 51.2308 35.4149 51.4216 35.4593C51.6125 35.5038 51.7922 35.5594 51.9382 35.615C52.0841 35.6705 52.2525 35.7595 52.4322 35.8818C52.6119 36.004 52.7017 36.1597 52.7017 36.3709C52.7017 37.2046 52.7241 37.8826 52.7691 38.4051C52.814 38.9276 52.8813 39.3722 52.9712 39.7502C53.061 40.1281 53.1508 40.4505 53.2406 40.7284C53.3305 41.0174 53.4203 41.3175 53.5101 41.6399C53.5663 41.94 53.555 42.1957 53.4652 42.3958C53.3754 42.607 53.1508 42.6292 52.7915 42.4847C52.129 42.2513 51.635 41.7733 51.3206 41.0507C51.0062 40.3282 50.7704 39.6835 50.6244 39.0832C50.5907 38.9609 50.5234 38.7608 50.3999 38.4607C50.2764 38.1606 50.209 37.9493 50.1753 37.8382C49.9395 37.7826 49.6476 37.8604 49.3219 38.0827C48.9963 38.3051 48.6932 38.6163 48.4461 38.9943C48.1879 39.3833 48.0195 39.828 47.9521 40.3393C47.8735 40.8506 47.9745 41.3509 48.244 41.8622C48.3675 42.0401 48.536 42.2624 48.7605 42.5069C48.9851 42.7626 49.2097 43.0183 49.4342 43.2851C49.6588 43.5519 49.8834 43.8186 50.1079 44.0632C50.3325 44.3077 50.5234 44.519 50.6693 44.6635C50.849 44.8413 50.9725 44.9414 51.0287 44.9525C51.0848 44.9636 51.242 44.9303 51.4778 44.8413C51.781 44.6968 52.2413 44.4967 52.8589 44.2633C53.4764 44.0298 54.1277 43.7853 54.8014 43.5519C55.4751 43.3184 56.1263 43.1183 56.7439 42.9516C57.3615 42.7848 57.8331 42.707 58.1699 42.707C58.3832 42.707 58.5292 42.7848 58.619 42.9294C58.7089 43.0183 58.6976 43.1406 58.5741 43.2851C58.4506 43.4296 58.2934 43.5852 58.1025 43.7297C57.9116 43.8742 57.6983 44.0076 57.4962 44.1299C57.2829 44.2522 57.1481 44.3189 57.092 44.3522C56.5755 44.6524 55.9355 44.9858 55.1495 45.3638C54.3635 45.7306 53.6898 46.0974 53.1171 46.4532C53.061 46.5087 52.9487 46.5754 52.7803 46.631C52.6119 46.6866 52.4883 46.7533 52.3985 46.8089C52.7578 47.6092 53.0161 48.3095 53.162 48.8876C53.308 49.4656 53.3642 50.0214 53.3192 50.5661C53.2743 51.0997 53.162 51.6444 52.9824 52.2002C52.8027 52.756 52.5557 53.3896 52.2638 54.101C51.8371 54.7902 51.4104 55.4461 50.9725 56.0686C50.5346 56.6911 50.0518 57.258 49.5016 57.7693C48.9626 58.2807 48.3675 58.6809 47.7387 58.9699C47.11 59.27 46.4138 59.4145 45.6615 59.4145C45.2348 59.4145 44.8306 59.3589 44.4376 59.2589C44.0446 59.1588 43.719 58.9365 43.4495 58.6142C42.7533 57.8694 42.3716 57.0579 42.2818 56.1797C42.1919 55.3016 42.2705 54.4345 42.5063 53.5675C42.686 53.0339 42.9105 52.5448 43.18 52.089C43.8425 50.9552 44.5723 49.9992 45.3696 49.2099C46.178 48.4318 47.0089 47.6759 47.8847 46.9645ZM49.423 48.9765C49.0861 49.31 48.637 49.7769 48.0644 50.3883C47.4917 50.9996 46.964 51.6666 46.4587 52.378C45.9647 53.0895 45.5604 53.8009 45.246 54.5012C44.9316 55.2015 44.8531 55.8018 44.999 56.3131C45.6054 56.0463 46.2229 55.6017 46.8517 54.9903C47.4805 54.3789 48.0419 53.712 48.5247 52.9783C49.0075 52.2446 49.3444 51.5221 49.5353 50.8107C49.7262 50.0881 49.6925 49.4767 49.423 48.9765Z" fill="#3C2B4A" stroke="white" stroke-miterlimit="10"/>
<path d="M40.5636 65.062C26.5169 65.062 15.0864 53.7458 15.0864 39.8396C15.0864 25.9334 26.5169 14.6172 40.5636 14.6172C54.6103 14.6172 66.0408 25.9334 66.0408 39.8396C66.0408 53.7458 54.6103 65.062 40.5636 65.062ZM40.5636 15.7288C27.1345 15.7288 16.2093 26.5448 16.2093 39.8396C16.2093 53.1344 27.1345 63.9504 40.5636 63.9504C53.9927 63.9504 64.9179 53.1344 64.9179 39.8396C64.9179 26.5448 53.9927 15.7288 40.5636 15.7288Z" fill="#3C2B4A"/>
</g>
</svg>
