<svg width="192" height="192" viewBox="0 0 192 192" fill="none" xmlns="http://www.w3.org/2000/svg">
<g filter="url(#filter0_b_573_862)">
<circle cx="96" cy="96" r="96" fill="url(#paint0_linear_573_862)"/>
<circle cx="96" cy="96" r="95.5" stroke="#D8D8D8" stroke-dasharray="3 3"/>
</g>
<path d="M114.286 27.4731C113.902 27.8987 113.397 28.1825 112.771 28.3649C112.145 28.527 111.438 28.527 110.65 28.3649C109.862 28.2027 109.176 27.8987 108.63 27.4934C108.085 27.088 107.661 26.6016 107.398 26.0138C107.135 25.4261 107.055 24.7978 107.135 24.1087L109.499 24.6154C109.458 25.0815 109.559 25.5071 109.802 25.872C110.044 26.2368 110.428 26.48 110.953 26.5813C111.418 26.6827 111.801 26.6421 112.104 26.4394C112.407 26.2368 112.589 25.953 112.67 25.5679C112.751 25.2234 112.71 24.9194 112.549 24.6356C112.407 24.3722 112.185 24.1289 111.902 23.9263C111.62 23.7236 111.236 23.4804 110.731 23.1764C110.084 22.7913 109.559 22.4467 109.176 22.1225C108.792 21.7982 108.489 21.3928 108.267 20.8861C108.044 20.3794 108.024 19.7917 108.166 19.0823C108.368 18.1297 108.873 17.4406 109.68 17.0353C110.488 16.6299 111.458 16.5489 112.609 16.7921C113.781 17.0556 114.67 17.542 115.235 18.2513C115.821 18.981 116.043 19.8119 115.942 20.7848L113.538 20.2578C113.559 19.8322 113.458 19.4674 113.235 19.1634C113.013 18.8391 112.67 18.6364 112.205 18.5351C111.801 18.454 111.438 18.4743 111.135 18.6364C110.832 18.7986 110.65 19.0823 110.549 19.4877C110.509 19.8322 110.549 20.1362 110.69 20.3997C110.832 20.6632 111.054 20.8861 111.317 21.0888C111.579 21.2915 111.963 21.5347 112.448 21.8184C113.114 22.2238 113.639 22.5886 114.043 22.9129C114.447 23.2372 114.75 23.6425 114.972 24.1695C115.195 24.6762 115.215 25.3045 115.073 26.0138C114.932 26.561 114.69 27.0475 114.286 27.4731Z" fill="#3C2B4A"/>
<path d="M130.93 24.2499C131.495 25.3038 131.677 26.459 131.435 27.7359L129.233 26.7833C129.253 26.1145 129.092 25.5267 128.748 24.9795C128.405 24.4525 127.9 24.0269 127.233 23.7432C126.688 23.5 126.122 23.4189 125.557 23.4999C124.991 23.581 124.466 23.8242 124.002 24.2296C123.537 24.6349 123.153 25.1822 122.85 25.8915C122.547 26.5806 122.426 27.2292 122.446 27.8575C122.466 28.4858 122.648 29.033 122.971 29.4992C123.295 29.9653 123.739 30.3301 124.284 30.5733C124.951 30.8571 125.597 30.9584 126.223 30.8368C126.85 30.7152 127.395 30.4315 127.859 29.9653L130.061 30.9179C129.294 31.9515 128.324 32.6204 127.173 32.9244C126.021 33.2284 124.789 33.0865 123.497 32.519C122.507 32.0934 121.719 31.4651 121.154 30.6949C120.588 29.9045 120.265 29.0127 120.204 28.0196C120.144 27.0265 120.325 26.0131 120.77 24.9795C121.214 23.9458 121.84 23.1149 122.608 22.4663C123.375 21.838 124.244 21.4529 125.193 21.3516C126.143 21.23 127.132 21.3921 128.142 21.838C129.435 22.3852 130.364 23.1959 130.93 24.2499Z" fill="#3C2B4A"/>
<path d="M137.312 40.3836L137.676 35.1951L136.848 34.6276L134.303 38.2757L132.444 36.9583L138.989 27.5947L142.544 30.0876C143.634 30.8578 144.26 31.6888 144.462 32.6211C144.664 33.5534 144.462 34.4452 143.857 35.3167C143.372 36.026 142.746 36.4719 142.018 36.6746C141.291 36.8773 140.504 36.7962 139.655 36.4314L139.372 41.8023L137.312 40.3836ZM137.757 33.3507L139.292 34.4249C140.362 35.1748 141.231 35.0735 141.877 34.1209C142.2 33.675 142.301 33.2291 142.22 32.7832C142.14 32.3373 141.816 31.932 141.271 31.5469L139.736 30.4727L137.757 33.3507Z" fill="#3C2B4A"/>
<path d="M156.258 43.1799C156.5 44.1528 156.46 45.1256 156.157 46.0985C155.854 47.0713 155.309 47.9428 154.48 48.713C153.673 49.4832 152.764 49.9899 151.774 50.2533C150.784 50.4965 149.794 50.4763 148.845 50.1925C147.896 49.9088 147.047 49.3616 146.32 48.5914C145.593 47.8212 145.108 46.9497 144.866 45.9769C144.624 45.004 144.664 44.0312 144.967 43.0381C145.27 42.0652 145.835 41.1735 146.643 40.4033C147.451 39.6331 148.36 39.1264 149.35 38.8832C150.34 38.64 151.309 38.6603 152.259 38.944C153.208 39.2278 154.056 39.775 154.783 40.5452C155.531 41.3356 156.016 42.2071 156.258 43.1799ZM151.733 41.0316C151.168 40.8694 150.582 40.8694 149.976 41.0519C149.37 41.2343 148.784 41.5788 148.239 42.1058C147.694 42.6327 147.31 43.1799 147.088 43.788C146.866 44.3757 146.825 44.9635 146.967 45.5513C147.088 46.1187 147.391 46.666 147.855 47.1524C148.32 47.6388 148.825 47.9631 149.39 48.1252C149.956 48.2874 150.542 48.2671 151.148 48.0847C151.754 47.9023 152.339 47.5577 152.885 47.0308C153.43 46.5038 153.814 45.9566 154.036 45.3486C154.258 44.7405 154.299 44.1731 154.157 43.5853C154.036 43.0178 153.733 42.4706 153.269 41.9842C152.824 41.518 152.319 41.1937 151.733 41.0316Z" fill="#3C2B4A"/>
<path d="M155.713 57.5497L157.793 60.7723L156.319 61.7248L153.026 56.5769L162.621 50.375L163.853 52.3004L155.713 57.5497Z" fill="#3C2B4A"/>
<path d="M160.884 66.9748L162.459 70.4811L160.863 71.1905L158.359 65.5966L168.761 60.8945L169.69 62.9821L160.884 66.9748Z" fill="#3C2B4A"/>
<path d="M168.216 90.627C167.287 90.2825 166.54 89.6947 165.934 88.884C165.328 88.053 164.944 87.0397 164.762 85.8033L164.176 81.7701L175.447 80.0879L176.033 84.1009C176.215 85.3372 176.134 86.4316 175.811 87.3842C175.487 88.3368 174.922 89.1272 174.154 89.715C173.387 90.3027 172.417 90.6878 171.286 90.85C170.155 91.0729 169.145 90.9716 168.216 90.627ZM168.115 88.0125C168.862 88.58 169.791 88.7827 170.943 88.6205C172.114 88.4584 172.963 87.972 173.488 87.2221C174.033 86.4519 174.215 85.4791 174.033 84.2427L173.791 82.6821L166.499 83.7563L166.721 85.3169C166.923 86.533 167.368 87.4248 168.115 88.0125Z" fill="#3C2B4A"/>
<path d="M176.033 105.361C175.467 106.191 174.74 106.84 173.811 107.266C172.882 107.712 171.872 107.894 170.761 107.813C169.65 107.732 168.66 107.408 167.812 106.84C166.963 106.273 166.317 105.543 165.873 104.651C165.448 103.759 165.267 102.766 165.327 101.692C165.408 100.618 165.711 99.6653 166.277 98.8344C166.822 98.0034 167.569 97.3548 168.498 96.9292C169.428 96.4833 170.438 96.3009 171.569 96.382C172.68 96.4631 173.669 96.7873 174.518 97.3346C175.366 97.9021 176.012 98.6317 176.457 99.5235C176.881 100.415 177.063 101.408 177.002 102.483C176.901 103.577 176.598 104.53 176.033 105.361ZM174.558 100.577C174.295 100.05 173.891 99.6248 173.346 99.3005C172.801 98.9762 172.154 98.7938 171.407 98.733C170.66 98.6722 169.993 98.7736 169.407 99.0168C168.822 99.26 168.357 99.6248 168.034 100.111C167.691 100.598 167.509 101.165 167.468 101.834C167.428 102.503 167.529 103.091 167.792 103.638C168.054 104.165 168.458 104.59 169.003 104.915C169.549 105.239 170.195 105.421 170.942 105.482C171.69 105.543 172.356 105.442 172.942 105.198C173.528 104.955 173.992 104.59 174.316 104.104C174.659 103.618 174.841 103.05 174.881 102.381C174.922 101.692 174.821 101.104 174.558 100.577Z" fill="#3C2B4A"/>
<path d="M170.579 129.702L160.601 123.501L161.469 120.825L169.993 121.352L162.802 116.731L163.671 114.076L175.386 114.948L174.618 117.299L165.67 116.225L173.366 121.129L172.599 123.501L163.489 122.933L171.346 127.351L170.579 129.702Z" fill="#3C2B4A"/>
<path d="M152.461 138.215L153.673 136.269L162.944 136.046L156.379 131.932L157.591 129.986L167.266 136.046L166.055 137.992L156.723 138.174L163.348 142.329L162.136 144.275L152.461 138.215Z" fill="#3C2B4A"/>
<path d="M146.563 160.772L145.371 159.414L147.714 157.306L141.332 150.111L143.028 148.591L149.411 155.786L151.754 153.698L152.966 155.056L146.563 160.772Z" fill="#3C2B4A"/>
<path d="M134.06 168.331C133.071 168.352 132.121 168.088 131.232 167.581C130.344 167.075 129.617 166.325 129.051 165.352C128.485 164.379 128.182 163.386 128.162 162.352C128.142 161.319 128.384 160.386 128.869 159.515C129.374 158.643 130.081 157.934 130.99 157.387C131.899 156.84 132.869 156.576 133.858 156.556C134.848 156.536 135.797 156.799 136.686 157.306C137.575 157.833 138.302 158.562 138.868 159.535C139.433 160.508 139.736 161.501 139.736 162.514C139.756 163.528 139.514 164.48 139.029 165.352C138.524 166.223 137.817 166.933 136.908 167.48C136.02 168.047 135.05 168.331 134.06 168.331ZM137.151 164.399C137.433 163.872 137.555 163.305 137.514 162.677C137.474 162.048 137.252 161.4 136.888 160.751C136.504 160.103 136.04 159.596 135.515 159.251C134.989 158.907 134.424 158.724 133.838 158.724C133.252 158.724 132.667 158.887 132.101 159.231C131.515 159.576 131.091 160.001 130.808 160.528C130.526 161.055 130.404 161.623 130.445 162.251C130.485 162.879 130.707 163.528 131.091 164.176C131.475 164.825 131.939 165.332 132.465 165.676C132.99 166.021 133.555 166.183 134.141 166.203C134.727 166.203 135.313 166.041 135.878 165.696C136.444 165.352 136.868 164.926 137.151 164.399Z" fill="#3C2B4A"/>
<path d="M108.691 167.623C108.852 167.076 109.175 166.589 109.68 166.164C110.165 165.738 110.812 165.434 111.599 165.231C112.387 165.049 113.114 165.008 113.801 165.13C114.488 165.252 115.073 165.515 115.558 165.92C116.043 166.326 116.407 166.873 116.629 167.522L114.266 168.089C114.104 167.643 113.841 167.319 113.458 167.096C113.074 166.873 112.629 166.812 112.124 166.954C111.66 167.055 111.337 167.278 111.155 167.582C110.973 167.886 110.913 168.231 111.014 168.616C111.094 168.961 111.256 169.224 111.519 169.407C111.761 169.589 112.064 169.711 112.407 169.771C112.751 169.832 113.195 169.893 113.781 169.933C114.528 169.994 115.154 170.096 115.639 170.217C116.144 170.339 116.588 170.582 116.992 170.927C117.396 171.291 117.699 171.818 117.861 172.507C118.083 173.46 117.921 174.291 117.376 175.021C116.831 175.73 115.982 176.237 114.851 176.5C113.68 176.784 112.67 176.723 111.842 176.318C111.014 175.912 110.428 175.264 110.125 174.332L112.508 173.764C112.67 174.149 112.912 174.433 113.256 174.636C113.599 174.818 114.003 174.858 114.468 174.757C114.871 174.656 115.174 174.473 115.376 174.19C115.578 173.906 115.619 173.561 115.518 173.156C115.437 172.832 115.275 172.589 115.033 172.406C114.791 172.244 114.508 172.122 114.165 172.062C113.841 172.001 113.397 171.94 112.831 171.899C112.064 171.818 111.418 171.717 110.933 171.616C110.428 171.494 109.983 171.271 109.559 170.906C109.135 170.541 108.832 169.994 108.671 169.285C108.509 168.717 108.509 168.17 108.691 167.623Z" fill="#3C2B4A"/>
<path d="M101.621 176.621L101.44 173.661L97.3998 173.925L97.2988 172.182L101.318 171.918L101.116 168.838L96.5919 169.122L96.4707 167.297L103.257 166.852L103.985 178.262L97.1978 178.708L97.0767 176.904L101.621 176.621Z" fill="#3C2B4A"/>
<path d="M88.5931 176.54L88.8961 173.581L84.8766 173.176L85.0584 171.433L89.0779 171.838L89.3809 168.778L84.8766 168.332L85.0584 166.508L91.8249 167.177L90.6938 178.567L83.9272 177.898L84.109 176.094L88.5931 176.54Z" fill="#3C2B4A"/>
<path d="M62.2952 170.987C61.6892 170.196 61.3055 169.304 61.1843 168.291C61.0631 167.278 61.2045 166.244 61.6287 165.21C62.0528 164.177 62.6588 163.325 63.4667 162.677C64.2747 162.028 65.1634 161.643 66.1531 161.522C67.1429 161.4 68.1326 161.522 69.1223 161.927C70.112 162.332 70.92 162.92 71.5259 163.71C72.1521 164.501 72.5157 165.393 72.6369 166.426C72.758 167.44 72.6167 168.473 72.1925 169.507C71.7683 170.541 71.1624 171.392 70.3544 172.02C69.5465 172.648 68.6577 173.034 67.668 173.175C66.6783 173.297 65.6886 173.175 64.6988 172.77C63.7091 172.365 62.9012 171.777 62.2952 170.987ZM67.2842 171.068C67.87 170.987 68.3952 170.723 68.8799 170.318C69.3647 169.892 69.7283 169.345 70.0312 168.635C70.314 167.926 70.4352 167.278 70.3746 166.629C70.3342 166.001 70.1322 165.433 69.7687 164.967C69.4253 164.501 68.9203 164.136 68.3144 163.873C67.6882 163.629 67.1025 163.528 66.5167 163.629C65.9309 163.71 65.4058 163.974 64.921 164.4C64.4362 164.825 64.0727 165.372 63.7697 166.082C63.4869 166.791 63.3657 167.44 63.4263 168.088C63.4869 168.717 63.6687 169.264 64.0323 169.75C64.3959 170.216 64.8806 170.581 65.4866 170.845C66.0925 171.108 66.7187 171.149 67.2842 171.068Z" fill="#3C2B4A"/>
<path d="M51.5483 165.778L55.3254 160.245C55.8304 159.495 56.0526 158.847 55.9718 158.239C55.891 157.631 55.5476 157.144 54.9417 156.719C54.3357 156.313 53.7499 156.171 53.1642 156.313C52.5784 156.455 52.0533 156.901 51.5483 157.651L47.7914 163.184L45.9331 161.907L49.69 156.354C50.2758 155.482 50.9423 154.854 51.6897 154.469C52.4168 154.084 53.1844 153.942 53.9519 154.043C54.7195 154.145 55.4668 154.449 56.194 154.935C57.3251 155.705 57.9916 156.658 58.2138 157.813C58.436 158.948 58.0926 160.184 57.2039 161.502L53.447 167.055L51.5483 165.778Z" fill="#3C2B4A"/>
<path d="M44.3785 145.005L43.106 150.031L43.813 150.74L46.9639 147.599L48.5596 149.22L40.46 157.266L37.41 154.165C36.4809 153.213 35.9961 152.281 35.9759 151.328C35.9557 150.375 36.2991 149.524 37.0465 148.774C37.6524 148.166 38.3392 147.822 39.0865 147.761C39.8339 147.7 40.6014 147.903 41.3689 148.409L42.6011 143.16L44.3785 145.005ZM42.6819 151.855L41.3689 150.517C40.46 149.585 39.5915 149.524 38.7633 150.355C38.3796 150.74 38.1776 151.166 38.1776 151.591C38.1776 152.037 38.42 152.504 38.8845 152.97L40.1974 154.307L42.6819 151.855Z" fill="#3C2B4A"/>
<path d="M33.3902 133.066L31.4915 129.743L33.0064 128.871L36.0362 134.181L26.1389 139.876L25.0078 137.89L33.3902 133.066Z" fill="#3C2B4A"/>
<path d="M26.5839 119.142L28.1189 123.459L30.5428 123.439L31.3507 125.709L19.3124 125.547L18.4438 123.095L27.6544 115.332L28.4623 117.602L26.5839 119.142ZM25.1498 120.318L21.1908 123.54L26.2809 123.5L25.1498 120.318Z" fill="#3C2B4A"/>
<path d="M14.3433 105.321L16.1207 105.037L16.6055 108.158L26.0786 106.679L26.422 108.928L16.9489 110.408L17.4336 113.509L15.636 113.793L14.3433 105.321Z" fill="#3C2B4A"/>
<path d="M15.8381 96.9086L18.7871 96.9491L18.8275 92.8956L20.5645 92.9159L20.5241 96.9694L23.5943 97.0099L23.6549 92.47L25.4728 92.4903L25.392 99.3204L14 99.1583L14.0808 92.3281L15.8785 92.3484L15.8381 96.9086Z" fill="#3C2B4A"/>
<path d="M25.7961 80.2287C26.2203 80.6138 26.5435 81.1002 26.7252 81.7082C26.907 82.3163 26.9272 83.0459 26.7858 83.8363C26.6445 84.6268 26.3819 85.3159 25.9779 85.9036C25.5941 86.4914 25.1094 86.917 24.5438 87.2007C23.958 87.4845 23.3319 87.5858 22.6451 87.525L23.0895 85.1334C23.5541 85.174 23.958 85.0524 24.3216 84.7889C24.6852 84.5254 24.9074 84.1403 25.0084 83.6134C25.0892 83.1472 25.0286 82.7621 24.8266 82.4784C24.6246 82.1744 24.3216 81.992 23.9379 81.9312C23.5945 81.8704 23.2915 81.9109 23.0087 82.073C22.7461 82.2352 22.5038 82.4581 22.322 82.7419C22.12 83.0256 21.8978 83.4107 21.615 83.9377C21.2514 84.5862 20.9283 85.1334 20.6051 85.5388C20.3021 85.9442 19.8981 86.2684 19.4134 86.4914C18.9286 86.7346 18.3227 86.7751 17.6359 86.6535C16.6664 86.4711 15.9796 85.9847 15.5555 85.1942C15.1313 84.4038 15.0101 83.431 15.2323 82.2757C15.4545 81.0799 15.919 80.1882 16.6058 79.5801C17.3127 78.9721 18.1409 78.7086 19.1104 78.7897L18.666 81.2218C18.2419 81.2218 17.8985 81.3231 17.5753 81.5461C17.2723 81.769 17.0703 82.1338 16.9896 82.6C16.9088 83.0054 16.9694 83.3702 17.1309 83.6742C17.2925 83.9782 17.5955 84.1606 17.9995 84.2214C18.3227 84.2822 18.6256 84.2417 18.868 84.0795C19.1104 83.9174 19.3528 83.7147 19.5346 83.431C19.7164 83.1472 19.9587 82.7621 20.2213 82.2757C20.6051 81.6069 20.9485 81.0597 21.2514 80.6543C21.5544 80.249 21.9584 79.9247 22.4634 79.6815C22.9683 79.4383 23.5743 79.3977 24.3014 79.5193C24.867 79.6207 25.3517 79.8639 25.7961 80.2287Z" fill="#3C2B4A"/>
<path d="M20.645 64.3193L22.3416 64.9476L21.2509 67.9067L30.2393 71.2711L29.4515 73.4195L20.4632 70.0551L19.3725 72.9939L17.6758 72.3656L20.645 64.3193Z" fill="#3C2B4A"/>
<path d="M36.7435 39.7539L43.8937 49.0973L42.1365 51.2862L34.36 47.7596L39.4703 54.6303L37.713 56.8192L27.0684 51.8536L28.6034 49.9282L36.5819 54.1033L31.1081 46.7868L32.6634 44.8208L40.9852 48.5906L35.1882 41.6793L36.7435 39.7539Z" fill="#3C2B4A"/>
<path d="M49.0043 30.4112C49.994 30.2896 50.9636 30.4315 51.8927 30.8369C52.8218 31.2422 53.6298 31.8908 54.3165 32.7825C54.9831 33.6743 55.4072 34.6269 55.5284 35.6605C55.6698 36.6739 55.5486 37.6468 55.1447 38.5588C54.7609 39.4708 54.1347 40.2613 53.2864 40.9098C52.4381 41.5584 51.5089 41.9435 50.5192 42.0651C49.5295 42.1867 48.5599 42.0448 47.6308 41.6395C46.7017 41.2341 45.8937 40.5653 45.207 39.6735C44.5404 38.7817 44.1163 37.8292 43.9951 36.8158C43.8537 35.8024 43.9951 34.8296 44.3788 33.9175C44.7828 33.0055 45.3888 32.2151 46.2371 31.5665C47.0855 30.9382 48.0146 30.5531 49.0043 30.4112ZM46.3785 34.6877C46.1563 35.2349 46.0957 35.8227 46.2169 36.451C46.3381 37.0793 46.6209 37.6873 47.0653 38.2953C47.5096 38.9033 48.0348 39.329 48.6003 39.6127C49.1659 39.8965 49.7517 39.9978 50.3374 39.937C50.9232 39.8762 51.4887 39.633 52.0139 39.2276C52.5391 38.8223 52.9228 38.3561 53.145 37.8089C53.3672 37.2617 53.4278 36.6739 53.3066 36.0456C53.1854 35.4173 52.9026 34.8093 52.4583 34.2013C52.0139 33.5932 51.4887 33.1676 50.9232 32.8839C50.3576 32.6001 49.7719 32.4988 49.1861 32.5596C48.6003 32.6204 48.0348 32.8636 47.5096 33.269C46.9845 33.6743 46.6007 34.1405 46.3785 34.6877Z" fill="#3C2B4A"/>
<path d="M67.1824 32.5393L62.8599 29.6613L61.951 30.0869L63.8699 34.0999L61.8096 35.093L56.9014 24.7971L60.8199 22.9122C62.0116 22.3447 63.0619 22.2029 63.9709 22.4866C64.8798 22.7703 65.5665 23.3986 66.0109 24.3512C66.3745 25.1417 66.4755 25.8916 66.2937 26.6212C66.1119 27.3508 65.6473 27.9994 64.9202 28.5669L69.4447 31.4651L67.1824 32.5393ZM61.2845 28.6885L62.9811 27.8778C64.1526 27.3103 64.496 26.5198 63.9911 25.4659C63.7487 24.9592 63.4255 24.6552 63.0013 24.5134C62.5772 24.3715 62.0722 24.4526 61.4662 24.7363L59.7696 25.547L61.2845 28.6885Z" fill="#3C2B4A"/>
<path d="M76.4135 23.1961L82.5538 27.5942L79.8876 28.3035L74.4744 24.3108L75.8075 29.3777L73.6059 29.9655L70.6973 18.8994L72.8989 18.3116L74.2118 23.2772L76.9992 17.2172L79.6452 16.5078L76.4135 23.1961Z" fill="#3C2B4A"/>
<path d="M94.8139 14.0965L96.6521 18.2583L101.125 19.0937L97.7469 22.1457L98.3277 26.6541L94.4014 24.3875L90.2925 26.3344L91.2461 21.8889L88.1227 18.58L92.6345 18.0984L94.8139 14.0965Z" fill="#527CEB"/>
<defs>
<filter id="filter0_b_573_862" x="-20" y="-20" width="232" height="232" filterUnits="userSpaceOnUse" color-interpolation-filters="sRGB">
<feFlood flood-opacity="0" result="BackgroundImageFix"/>
<feGaussianBlur in="BackgroundImageFix" stdDeviation="10"/>
<feComposite in2="SourceAlpha" operator="in" result="effect1_backgroundBlur_573_862"/>
<feBlend mode="normal" in="SourceGraphic" in2="effect1_backgroundBlur_573_862" result="shape"/>
</filter>
<linearGradient id="paint0_linear_573_862" x1="96" y1="0" x2="96" y2="192" gradientUnits="userSpaceOnUse">
<stop stop-color="#F3F3F3" stop-opacity="0.44"/>
<stop offset="1" stop-color="#E2E2E2" stop-opacity="0"/>
</linearGradient>
</defs>
</svg>
