<svg width="32" height="32" viewBox="0 0 32 32" fill="none" xmlns="http://www.w3.org/2000/svg">
<path d="M26.9956 17.4858C27.0017 18.1205 26.7967 18.4929 26.2529 18.8051C23.9578 20.1306 21.6871 21.504 19.4021 22.8461C18.4747 23.3913 18.1947 23.2269 18.1906 22.1428C18.1805 19.4397 18.1704 16.7367 18.1988 14.0315C18.2069 13.3969 18.01 13.014 17.4581 12.7123C16.3684 12.0464 15.0554 11.2348 13.7709 10.4628C13.7709 7.3977 13.7689 4.55731 13.7709 1.71899C13.773 0.351856 14.0063 0.216599 15.1731 0.90745C18.8319 3.06948 22.4825 5.24816 26.1514 7.38938C26.7501 7.73897 27.0118 8.12185 26.9997 8.85432C26.957 11.7322 26.9672 14.6079 26.9956 17.4858Z" fill="#FABFDB"/>
<path d="M13.8151 11.8113C13.8131 17.9457 13.8151 24.0801 13.811 30.2166C13.811 31.6774 13.6183 31.7939 12.3987 31.0531C10.1888 29.7131 7.99518 28.3438 5.77112 27.0308C5.19481 26.6895 5 26.2921 5 25.62C5.02232 19.3461 5.01218 13.0723 5.01623 6.79845C5.01623 5.56866 5.2496 5.43548 6.31293 6.06182C8.73992 7.48514 11.1588 8.92095 13.7705 10.4629C13.7826 10.7604 13.8171 11.4534 13.8151 11.8113Z" fill="#6D93F9"/>
</svg>
