<svg width="141" height="41" viewBox="0 0 141 41" fill="none" xmlns="http://www.w3.org/2000/svg">
<path d="M62.6436 34.407C58.8202 34.407 55.9712 33.4573 54.0966 31.558C52.2219 29.6587 51.2846 26.8343 51.2846 23.085V7.915H57.0566V23.122C57.0566 25.2187 57.5006 26.8097 58.3886 27.895C59.3012 28.9803 60.7196 29.523 62.6436 29.523C64.5182 29.523 65.9119 28.9803 66.8246 27.895C67.7619 26.8097 68.2306 25.2187 68.2306 23.122V7.915H73.9286V23.085C73.9286 26.8343 72.9789 29.6587 71.0796 31.558C69.2049 33.4573 66.3929 34.407 62.6436 34.407ZM79.038 34V7.915H84.81V34H79.038ZM101.306 34.407C97.4823 34.407 94.6333 33.4573 92.7587 31.558C90.884 29.6587 89.9467 26.8343 89.9467 23.085V7.915H95.7187V23.122C95.7187 25.2187 96.1627 26.8097 97.0507 27.895C97.9633 28.9803 99.3817 29.523 101.306 29.523C103.18 29.523 104.574 28.9803 105.487 27.895C106.424 26.8097 106.893 25.2187 106.893 23.122V7.915H112.591V23.085C112.591 26.8343 111.641 29.6587 109.742 31.558C107.867 33.4573 105.055 34.407 101.306 34.407ZM114.117 34L125.032 19.496V22.049L114.413 7.915H121.184L128.288 17.868H126.438L133.579 7.915H140.35L129.694 22.049V19.496L140.683 34H133.875L126.438 23.677H128.325L120.851 34H114.117Z" fill="white"/>
<path d="M36.7884 10.1689C40.1956 13.576 40.1956 19.1001 36.7884 22.5073L25.8209 33.4748C22.4138 36.8819 16.8897 36.8819 13.4825 33.4748C10.0753 30.0676 10.0753 24.5435 13.4825 21.1363L24.45 10.1689C27.8572 6.76169 33.3813 6.76169 36.7884 10.1689Z" fill="#FFDBEC"/>
<path d="M25.8613 33.4746C22.4541 36.8817 16.93 36.8817 13.5229 33.4746L2.55537 22.5071C-0.85179 19.0999 -0.851791 13.5758 2.55537 10.1687C5.96253 6.76149 11.4866 6.76149 14.8938 10.1687L25.8613 21.1361C29.2685 24.5433 29.2685 30.0674 25.8613 33.4746Z" fill="#6D93F9"/>
<path d="M26.3425 32.9598L25.8209 33.4814C24.1336 35.1687 21.9271 36.0204 19.7156 36.0365C17.475 36.0426 15.2324 35.1908 13.5229 33.4812L12.999 32.9573C10.0838 29.5295 10.245 24.3805 13.4825 21.143L19.672 14.9535L25.8613 21.1428C29.0997 24.3812 29.2601 29.532 26.3425 32.9598Z" fill="#242F65"/>
</svg>
