<svg width="149" height="43" viewBox="0 0 149 43" fill="none" xmlns="http://www.w3.org/2000/svg">
<path d="M30.8651 23.5603C30.8737 24.4407 30.5861 24.9573 29.8229 25.3903C26.6024 27.2288 23.416 29.1338 20.2097 30.9955C18.9084 31.7517 18.5155 31.5237 18.5098 30.0199C18.4955 26.2706 18.4813 22.5213 18.5212 18.7691C18.5326 17.8888 18.2564 17.3577 17.4818 16.9392C15.9527 16.0155 14.1104 14.8899 12.3079 13.8191C12.3079 9.56754 12.3051 5.62774 12.3079 1.69082C12.3108 -0.205485 12.6382 -0.393095 14.2755 0.565158C19.4096 3.56403 24.5323 6.58599 29.6806 9.55599C30.5206 10.0409 30.8879 10.572 30.8708 11.588C30.811 15.5797 30.8253 19.5686 30.8651 23.5603Z" fill="#FABFDB"/>
<path d="M12.3696 15.6903C12.3667 24.1991 12.3696 32.7079 12.3639 41.2196C12.3639 43.2458 12.0934 43.4074 10.382 42.3799C7.28108 40.5211 4.20292 38.6219 1.08205 36.8007C0.273361 36.3273 0 35.776 0 34.8438C0.0313226 26.1416 0.017085 17.4394 0.0227801 8.73716C0.0227801 7.03135 0.350243 6.84663 1.84234 7.7154C5.24796 9.68964 8.64219 11.6812 12.3069 13.8199C12.324 14.2327 12.3724 15.1938 12.3696 15.6903Z" fill="#6D93F9"/>
<path d="M47.3091 32H42.8321V11.169H51.4161C53.7594 11.169 55.5971 11.7733 56.9291 12.982C58.2611 14.166 58.9271 15.942 58.9271 18.31C58.9271 20.382 58.2364 22.01 56.8551 23.194C55.4984 24.3533 53.6854 24.933 51.4161 24.933H47.3091V32ZM50.7871 14.795H47.3091V21.751H50.7871C51.9711 21.751 52.9454 21.4673 53.7101 20.9C54.4994 20.308 54.8941 19.4323 54.8941 18.273C54.8941 17.089 54.5118 16.2133 53.7471 15.646C52.9824 15.0787 51.9958 14.795 50.7871 14.795ZM62.0548 32V11.169H70.1208C72.8341 11.169 74.9554 11.6377 76.4848 12.575C78.0388 13.4877 78.8158 15.091 78.8158 17.385C78.8158 19.161 78.3964 20.567 77.5578 21.603C76.7438 22.639 75.6091 23.157 74.1538 23.157C74.9184 23.157 75.4981 23.342 75.8928 23.712C76.2874 24.0573 76.5588 24.489 76.7068 25.007C76.8794 25.525 77.0028 26.0677 77.0768 26.635C77.1754 27.1777 77.2988 27.671 77.4468 28.115C77.5948 28.5343 77.8414 28.8303 78.1868 29.003C78.5568 29.151 79.0994 29.077 79.8148 28.781V31.26C79.2474 31.7533 78.5938 32.074 77.8538 32.222C77.1138 32.3947 76.3984 32.3577 75.7078 32.111C75.0171 31.8643 74.4374 31.3833 73.9688 30.668C73.5248 29.928 73.3028 28.9167 73.3028 27.634C73.3028 26.7953 73.2411 26.0923 73.1178 25.525C73.0191 24.9577 72.7601 24.5137 72.3408 24.193C71.9214 23.8723 71.2554 23.6627 70.3428 23.564C69.4301 23.4653 68.1598 23.4653 66.5318 23.564V32H62.0548ZM66.5318 20.382H69.7138C70.8731 20.382 71.8228 20.345 72.5628 20.271C73.3274 20.197 73.8948 19.9873 74.2648 19.642C74.6348 19.272 74.8198 18.643 74.8198 17.755C74.8198 16.7437 74.5978 16.0407 74.1538 15.646C73.7098 15.2267 73.0438 14.98 72.1558 14.906C71.2924 14.832 70.2318 14.795 68.9738 14.795H66.5318V20.382ZM92.1508 32.518C88.7468 32.518 86.1444 31.5437 84.3438 29.595C82.5431 27.6217 81.6428 24.97 81.6428 21.64C81.6428 19.4447 82.0251 17.5453 82.7898 15.942C83.5791 14.314 84.7508 13.056 86.3048 12.168C87.8588 11.2553 89.8074 10.799 92.1508 10.799C95.5794 10.799 98.1818 11.7857 99.9578 13.759C101.734 15.7077 102.622 18.3347 102.622 21.64C102.622 23.786 102.227 25.6853 101.438 27.338C100.648 28.966 99.4768 30.2363 97.9228 31.149C96.3688 32.0617 94.4448 32.518 92.1508 32.518ZM92.1138 28.189C93.4704 28.189 94.6051 27.9053 95.5178 27.338C96.4304 26.746 97.1088 25.9567 97.5528 24.97C97.9968 23.9833 98.2188 22.8733 98.2188 21.64C98.2188 20.4067 97.9968 19.2843 97.5528 18.273C97.1088 17.2617 96.4304 16.46 95.5178 15.868C94.6051 15.276 93.4704 14.98 92.1138 14.98C90.1158 14.98 88.5988 15.609 87.5628 16.867C86.5268 18.1003 86.0088 19.6913 86.0088 21.64C86.0088 22.8487 86.2308 23.9463 86.6748 24.933C87.1188 25.9197 87.7848 26.709 88.6728 27.301C89.5854 27.893 90.7324 28.189 92.1138 28.189ZM119.946 11.169H124.608V32H116.061L110.548 13.13H110.474V32H105.849V11.169H113.767L119.872 30.039H119.946V11.169ZM127.353 32L134.642 21.048L127.908 11.169H133.199L137.639 18.421L142.079 11.169H147.296L140.636 21.048L147.925 32H142.745L137.639 23.823L132.57 32H127.353Z" fill="#242F65"/>
</svg>
