<svg width="159" height="42" viewBox="0 0 159 42" fill="none" xmlns="http://www.w3.org/2000/svg">
<path d="M80.2573 34.907C76.434 34.907 73.585 33.9573 71.7103 32.058C69.8357 30.1587 68.8983 27.3343 68.8983 23.585V8.415H74.6703V23.622C74.6703 25.7187 75.1143 27.3097 76.0023 28.395C76.915 29.4803 78.3333 30.023 80.2573 30.023C82.132 30.023 83.5257 29.4803 84.4383 28.395C85.3757 27.3097 85.8443 25.7187 85.8443 23.622V8.415H91.5423V23.585C91.5423 27.3343 90.5927 30.1587 88.6933 32.058C86.8187 33.9573 84.0067 34.907 80.2573 34.907ZM96.6518 34.5V8.415H102.424V34.5H96.6518ZM118.919 34.907C115.096 34.907 112.247 33.9573 110.372 32.058C108.498 30.1587 107.56 27.3343 107.56 23.585V8.415H113.332V23.622C113.332 25.7187 113.776 27.3097 114.664 28.395C115.577 29.4803 116.995 30.023 118.919 30.023C120.794 30.023 122.188 29.4803 123.1 28.395C124.038 27.3097 124.506 25.7187 124.506 23.622V8.415H130.204V23.585C130.204 27.3343 129.255 30.1587 127.355 32.058C125.481 33.9573 122.669 34.907 118.919 34.907ZM131.731 34.5L142.646 19.996V22.549L132.027 8.415H138.798L145.902 18.368H144.052L151.193 8.415H157.964L147.308 22.549V19.996L158.297 34.5H151.489L144.052 24.177H145.939L138.465 34.5H131.731Z" fill="#242F65"/>
<path d="M37.4027 10.6698C40.8098 14.077 40.8099 19.6011 37.4027 23.0083L26.4352 33.9757C23.028 37.3829 17.5039 37.3829 14.0968 33.9757C10.6896 30.5686 10.6896 25.0445 14.0968 21.6373L25.0643 10.6698C28.4714 7.26267 33.9955 7.26267 37.4027 10.6698Z" fill="#FFDBEC"/>
<path d="M26.4755 33.9755C23.0684 37.3827 17.5443 37.3827 14.1371 33.9756L3.16963 23.0081C-0.237532 19.6009 -0.237533 14.0768 3.16963 10.6696C6.57679 7.26247 12.1009 7.26247 15.5081 10.6696L26.4755 21.6371C29.8827 25.0443 29.8827 30.5684 26.4755 33.9755Z" fill="#6D93F9"/>
<path d="M26.9568 33.4608L26.4352 33.9824C24.7479 35.6697 22.5414 36.5214 20.3299 36.5375C18.0892 36.5435 15.8467 35.6917 14.1371 33.9822L13.6132 33.4583C10.6981 30.0304 10.8592 24.8815 14.0968 21.644L20.2863 15.4545L26.4755 21.6437C29.7139 24.8821 29.8743 30.0329 26.9568 33.4608Z" fill="#242F65"/>
</svg>
