<svg width="223" height="221" viewBox="0 0 223 221" fill="none" xmlns="http://www.w3.org/2000/svg">
<path d="M185.686 0.255439C209.803 24.7876 223.186 57.8954 222.893 92.2955C222.599 126.696 208.652 159.57 184.12 183.687C159.588 207.804 126.48 221.188 92.08 220.894C57.6799 220.6 24.8054 206.653 0.688541 182.121L44.0639 139.48C56.8717 152.508 74.3303 159.915 92.5992 160.071C110.868 160.227 128.451 153.119 141.479 140.312C154.507 127.504 161.914 110.045 162.07 91.7763C162.226 73.5074 155.118 55.9248 142.31 42.8965L185.686 0.255439Z" fill="url(#paint0_linear_247_686)"/>
<defs>
<linearGradient id="paint0_linear_247_686" x1="40.4442" y1="25.7613" x2="183.309" y2="204.195" gradientUnits="userSpaceOnUse">
<stop stop-color="#DB1BFA" stop-opacity="0"/>
<stop offset="0.995857" stop-color="#7B78FF" stop-opacity="0.63"/>
</linearGradient>
</defs>
</svg>
