<svg width="47" height="48" viewBox="0 0 47 48" fill="none" xmlns="http://www.w3.org/2000/svg">
<path d="M37.1084 21.501C33.3521 21.501 30.5508 20.5779 28.7044 18.7316C26.7944 16.8852 25.8394 14.4022 25.8394 11.2825C25.8394 8.29021 26.7944 5.80722 28.7044 3.83355C30.6145 1.85988 33.0338 0.873047 35.9624 0.873047C38.8911 0.873047 41.3741 2.11455 43.4114 4.59755C45.4488 7.14422 46.4674 10.8369 46.4674 15.6755C46.4674 21.1509 45.7034 26.0214 44.1754 30.287C42.5838 34.6164 40.3554 38.1817 37.4904 40.983C34.5618 43.848 31.0601 45.8535 26.9854 46.9995C26.6671 47.1269 26.4124 47.1587 26.2214 47.095C26.0304 47.095 25.9031 46.9995 25.8394 46.8086C25.7758 46.6175 25.8076 46.4266 25.9349 46.2355C26.0623 46.0445 26.2533 45.9172 26.5079 45.8535C30.3279 44.6439 33.4476 42.7657 35.8669 40.2191C38.2226 37.736 39.9734 34.9984 41.1194 32.006C42.2018 29.0774 42.7429 26.3397 42.7429 23.793C42.7429 23.0927 42.5838 22.5197 42.2654 22.074C41.8834 21.692 41.2786 21.501 40.4509 21.501H37.1084ZM11.8964 21.5965C8.20378 21.5965 5.43428 20.6734 3.58795 18.827C1.67795 16.9807 0.722949 14.4977 0.722949 11.378C0.722949 8.38571 1.67795 5.90271 3.58795 3.92904C5.49795 1.95538 7.88545 0.968549 10.7504 0.968549C13.6791 0.968549 16.1621 2.21005 18.1994 4.69304C20.2368 7.23971 21.2554 10.9005 21.2554 15.6755C21.2554 21.2145 20.4914 26.1169 18.9634 30.3825C17.4354 34.7119 15.2389 38.2772 12.3739 41.0785C9.44528 43.9435 5.94361 45.949 1.86894 47.095C1.48694 47.2224 1.20044 47.2542 1.00945 47.1905C0.818446 47.1905 0.691111 47.095 0.627441 46.904C0.627441 46.713 0.691109 46.522 0.818445 46.3311C0.882111 46.14 1.07311 45.9809 1.39144 45.8535C5.14778 44.7075 8.23561 42.8612 10.6549 40.3145C13.0743 37.7679 14.8569 34.9984 16.0029 32.006C17.0853 29.0774 17.6264 26.3715 17.6264 23.8885C17.6264 23.1882 17.4354 22.6152 17.0534 22.1695C16.6714 21.7875 16.0666 21.5965 15.2389 21.5965H11.8964Z" fill="#527CEB"/>
</svg>
