<svg width="35" height="40" viewBox="0 0 35 40" fill="none" xmlns="http://www.w3.org/2000/svg">
<path d="M17.5202 7.92188C17.5079 7.92188 17.4943 7.92188 17.4832 7.92188C14.4937 7.92188 11.6795 9.08755 9.55805 11.2053C7.42797 13.3317 6.25488 16.1594 6.25488 19.1662C6.25488 22.0582 7.35388 24.8007 9.34936 26.8888C10.3496 27.936 10.9003 29.2301 10.9003 30.5328V31.4811C10.9003 32.7752 11.9536 33.8273 13.2465 33.8273H21.7532C23.0473 33.8273 24.0994 32.7752 24.0994 31.4811V30.5328C24.0994 29.2288 24.6501 27.9347 25.6503 26.8876C27.6458 24.7995 28.7448 22.0569 28.7448 19.1662C28.7448 16.1594 27.5717 13.3317 25.4416 11.2053C23.3202 9.08755 20.5073 7.92188 17.5202 7.92188ZM24.0438 25.3515C22.646 26.8147 21.8754 28.6534 21.8754 30.5316V31.4799C21.8754 31.5478 21.8199 31.6034 21.752 31.6034H13.2452C13.1773 31.6034 13.1218 31.5478 13.1218 31.4799V30.5316C13.1218 28.6534 12.3512 26.8135 10.9534 25.3515C9.35553 23.6795 8.47634 21.4815 8.47634 19.165C8.47634 16.7521 9.41727 14.4837 11.1263 12.7772C12.8279 11.0793 15.0839 10.1433 17.4844 10.1433C17.4967 10.1446 17.5079 10.1433 17.514 10.1433C19.9108 10.1433 22.1681 11.0781 23.8685 12.7772C25.5775 14.4837 26.5184 16.7521 26.5184 19.165C26.5209 21.4827 25.6417 23.6795 24.0438 25.3515Z" fill="#527CEB"/>
<path d="M20.5327 35.7773H14.4697C13.856 35.7773 13.3584 36.275 13.3584 36.8887C13.3584 37.5024 13.856 38 14.4697 38H20.5327C21.1465 38 21.6441 37.5024 21.6441 36.8887C21.6441 36.275 21.1465 35.7773 20.5327 35.7773Z" fill="#527CEB"/>
<path d="M17.5 5.6006C18.1137 5.6006 18.6114 5.10297 18.6114 4.48926V2.31349C18.6114 1.69978 18.1137 1.20215 17.5 1.20215C16.8863 1.20215 16.3887 1.69978 16.3887 2.31349V4.48926C16.3887 5.10297 16.8863 5.6006 17.5 5.6006Z" fill="#527CEB"/>
<path d="M33.3242 15.7842H31.1485C30.5347 15.7842 30.0371 16.2818 30.0371 16.8955C30.0371 17.5092 30.5347 18.0069 31.1485 18.0069H33.3242C33.9379 18.0069 34.4356 17.5092 34.4356 16.8955C34.4356 16.2818 33.9392 15.7842 33.3242 15.7842Z" fill="#527CEB"/>
<path d="M3.85033 15.7842H1.6758C1.06209 15.7842 0.564453 16.2818 0.564453 16.8955C0.564453 17.5092 1.06209 18.0069 1.6758 18.0069H3.85156C4.46527 18.0069 4.96291 17.5092 4.96291 16.8955C4.96291 16.2818 4.46404 15.7842 3.85033 15.7842Z" fill="#527CEB"/>
<path d="M7.94076 8.90918C8.15809 9.12651 8.4421 9.23517 8.72735 9.23517C9.01259 9.23517 9.2966 9.12651 9.51393 8.90918C9.94859 8.47576 9.94859 7.7719 9.51393 7.33848L7.9741 5.79865C7.53944 5.36399 6.83559 5.36399 6.40217 5.79865C5.96751 6.23208 5.96751 6.93593 6.40217 7.36935L7.94076 8.90918Z" fill="#527CEB"/>
<path d="M27.0247 5.7987L25.4862 7.3373C25.0515 7.77072 25.0515 8.47457 25.4862 8.908C25.7035 9.12533 25.9875 9.23399 26.2727 9.23399C26.558 9.23399 26.842 9.12533 27.0593 8.908L28.5979 7.3694C29.0326 6.93598 29.0326 6.23213 28.5979 5.7987C28.1633 5.36528 27.4582 5.36528 27.0247 5.7987Z" fill="#527CEB"/>
</svg>
