<svg width="47" height="47" viewBox="0 0 47 47" fill="none" xmlns="http://www.w3.org/2000/svg">
<path opacity="0.4" d="M37.2087 17.6253C37.2087 20.4649 36.3666 23.0695 34.9174 25.2433C32.8024 28.3766 29.4537 30.5895 25.5566 31.1574C24.8907 31.2749 24.2053 31.3337 23.5003 31.3337C22.7953 31.3337 22.1099 31.2749 21.4441 31.1574C17.547 30.5895 14.1982 28.3766 12.0832 25.2433C10.6341 23.0695 9.79199 20.4649 9.79199 17.6253C9.79199 10.0466 15.9216 3.91699 23.5003 3.91699C31.0791 3.91699 37.2087 10.0466 37.2087 17.6253Z" fill="#41BE06"/>
<path d="M41.6142 36.1706L38.383 36.9343C37.6584 37.1106 37.0905 37.659 36.9338 38.3836L36.2484 41.2623C35.8763 42.829 33.8788 43.299 32.8409 42.0652L23.4996 31.3335L14.1584 42.0848C13.1205 43.3185 11.123 42.8485 10.7509 41.2819L10.0655 38.4031C9.88921 37.6785 9.32129 37.1106 8.61629 36.9539L5.38504 36.1902C3.89671 35.8377 3.36796 33.9773 4.44504 32.9002L12.0825 25.2627C14.1975 28.396 17.5463 30.609 21.4434 31.1769C22.1092 31.2944 22.7946 31.3531 23.4996 31.3531C24.2046 31.3531 24.89 31.2944 25.5559 31.1769C29.453 30.609 32.8017 28.396 34.9167 25.2627L42.5542 32.9002C43.6313 33.9577 43.1025 35.8181 41.6142 36.1706Z" fill="#41BE06"/>
<path d="M24.6354 11.7105L25.7908 14.0213C25.9475 14.3347 26.3587 14.648 26.7308 14.7068L28.8262 15.0592C30.1579 15.2747 30.4712 16.2538 29.5116 17.2134L27.8862 18.8388C27.612 19.113 27.4554 19.6418 27.5533 20.0334L28.0233 22.0505C28.3954 23.6368 27.5533 24.2634 26.1433 23.4213L24.185 22.2659C23.8325 22.0505 23.245 22.0505 22.8925 22.2659L20.9341 23.4213C19.5241 24.2438 18.682 23.6368 19.0541 22.0505L19.5241 20.0334C19.6025 19.6613 19.4654 19.113 19.1912 18.8388L17.5658 17.2134C16.6062 16.2538 16.9195 15.2942 18.2512 15.0592L20.3466 14.7068C20.6991 14.648 21.1104 14.3347 21.267 14.0213L22.4225 11.7105C22.9904 10.4572 24.0087 10.4572 24.6354 11.7105Z" fill="#41BE06"/>
</svg>
