<svg width="25" height="24" viewBox="0 0 25 24" fill="none" xmlns="http://www.w3.org/2000/svg">
<path d="M17.6333 2.01119C19.0076 2.01514 20.3245 2.54262 21.2963 3.47843C22.2681 4.41425 22.8159 5.68234 22.82 7.00577V16.9939C22.8159 18.3173 22.2681 19.5854 21.2963 20.5212C20.3245 21.457 19.0076 21.9845 17.6333 21.9885H7.26103C5.8867 21.9845 4.56983 21.457 3.59802 20.5212C2.62622 19.5854 2.07845 18.3173 2.07434 16.9939V7.00577C2.07845 5.68234 2.62622 4.41425 3.59802 3.47843C4.56983 2.54262 5.8867 2.01514 7.26103 2.01119H17.6333ZM17.6333 0.0136719H7.26103C3.26738 0.0136719 0 3.16004 0 7.00577V16.9939C0 20.8396 3.26738 23.986 7.26103 23.986H17.6333C21.6269 23.986 24.8943 20.8396 24.8943 16.9939V7.00577C24.8943 3.16004 21.6269 0.0136719 17.6333 0.0136719Z" fill="#527CEB"/>
<path d="M19.1892 7.00631C18.8815 7.00631 18.5807 6.91843 18.3248 6.7538C18.069 6.58917 17.8695 6.35517 17.7518 6.0814C17.634 5.80763 17.6032 5.50637 17.6632 5.21574C17.7233 4.9251 17.8715 4.65814 18.0891 4.4486C18.3067 4.23906 18.5839 4.09637 18.8857 4.03856C19.1875 3.98074 19.5004 4.01041 19.7847 4.12382C20.069 4.23722 20.312 4.42925 20.4829 4.67564C20.6539 4.92203 20.7451 5.21171 20.7451 5.50804C20.7456 5.70491 20.7056 5.89993 20.6276 6.0819C20.5496 6.26387 20.435 6.42921 20.2904 6.56842C20.1458 6.70763 19.9741 6.81797 19.7852 6.89312C19.5962 6.96826 19.3937 7.00673 19.1892 7.00631ZM12.4472 8.0048C13.2679 8.0048 14.0701 8.23913 14.7524 8.67817C15.4347 9.11721 15.9666 9.74123 16.2806 10.4713C16.5947 11.2014 16.6768 12.0048 16.5167 12.7799C16.3566 13.5549 15.9615 14.2669 15.3812 14.8256C14.8009 15.3844 14.0616 15.765 13.2567 15.9191C12.4518 16.0733 11.6175 15.9942 10.8594 15.6918C10.1012 15.3894 9.45317 14.8772 8.99725 14.2202C8.54133 13.5631 8.29798 12.7906 8.29798 12.0004C8.29915 10.941 8.73668 9.92539 9.51456 9.17632C10.2924 8.42725 11.3471 8.00593 12.4472 8.0048ZM12.4472 6.00728C11.2163 6.00728 10.013 6.35877 8.98958 7.0173C7.96612 7.67582 7.16843 8.61182 6.69738 9.70691C6.22633 10.802 6.10308 12.007 6.34322 13.1696C6.58336 14.3321 7.1761 15.4 8.04648 16.2381C8.91686 17.0763 10.0258 17.647 11.2331 17.8783C12.4403 18.1095 13.6917 17.9908 14.8289 17.5372C15.9661 17.0836 16.9381 16.3155 17.6219 15.3299C18.3058 14.3444 18.6708 13.1857 18.6708 12.0004C18.6708 10.4109 18.0151 8.88653 16.848 7.76261C15.6808 6.63869 14.0978 6.00728 12.4472 6.00728Z" fill="#527CEB"/>
</svg>
