<svg width="32" height="40" viewBox="0 0 32 40" fill="none" xmlns="http://www.w3.org/2000/svg">
<path d="M24.7273 38.5716C24.7273 38.9504 24.5741 39.3138 24.3013 39.5816C24.0285 39.8495 23.6586 40 23.2728 40H8.72749C8.34173 40 7.97176 39.8495 7.69899 39.5816C7.42621 39.3138 7.27296 38.9504 7.27296 38.5716C7.27296 38.1928 7.42621 37.8294 7.69899 37.5616C7.97176 37.2937 8.34173 37.1432 8.72749 37.1432H23.2728C23.6586 37.1432 24.0285 37.2937 24.3013 37.5616C24.5741 37.8294 24.7273 38.1928 24.7273 38.5716ZM32 15.7173C32.0048 18.0973 31.4571 20.447 30.3986 22.588C29.34 24.7289 27.7984 26.6047 25.8909 28.0729C25.5307 28.3399 25.2382 28.6852 25.0363 29.0817C24.8345 29.4781 24.7287 29.9151 24.7273 30.3583V31.4296C24.7273 32.1873 24.4208 32.9139 23.8753 33.4497C23.3297 33.9854 22.5898 34.2864 21.8183 34.2864H10.182C9.41049 34.2864 8.67056 33.9854 8.12501 33.4497C7.57945 32.9139 7.27296 32.1873 7.27296 31.4296V30.3583C7.27172 29.9213 7.16965 29.4902 6.97441 29.0975C6.77916 28.7047 6.49584 28.3605 6.1457 28.0907C4.24222 26.6327 2.70024 24.7698 1.6358 22.642C0.571357 20.5143 0.0121705 18.1772 0.000315803 15.8065C-0.0542291 7.28974 6.96388 0.201322 15.6183 0.00491721C17.752 -0.0475448 19.8748 0.320237 21.8614 1.08656C23.848 1.85288 25.6581 3.00221 27.185 4.46674C28.712 5.93126 29.9247 7.6813 30.7516 9.61359C31.5786 11.5459 32.0031 13.6213 32 15.7173ZM22.8546 16.1279C22.5788 15.8597 22.2064 15.7092 21.8183 15.7092C21.4301 15.7092 21.0577 15.8597 20.7819 16.1279L16.0001 20.8416L11.2184 16.1279C10.9358 15.9002 10.577 15.7838 10.2118 15.8014C9.84666 15.819 9.50122 15.9693 9.2427 16.2232C8.98418 16.4771 8.83106 16.8163 8.81313 17.1749C8.79519 17.5335 8.91373 17.8859 9.14567 18.1634L14.5456 23.4485V30.0012C14.5456 30.3801 14.6989 30.7434 14.9716 31.0113C15.2444 31.2791 15.6144 31.4296 16.0001 31.4296C16.3859 31.4296 16.7559 31.2791 17.0287 31.0113C17.3014 30.7434 17.4547 30.3801 17.4547 30.0012V23.4485L22.8546 18.1634C23.1277 17.8926 23.281 17.5268 23.281 17.1457C23.281 16.7645 23.1277 16.3988 22.8546 16.1279Z" fill="#527CEB"/>
</svg>
