<svg width="24" height="24" viewBox="0 0 24 24" fill="none" xmlns="http://www.w3.org/2000/svg">
<path d="M3 8.4C3 6.7026 3 5.8548 3.5274 5.3274C4.0548 4.8 4.9026 4.8 6.6 4.8H17.4C19.0974 4.8 19.9452 4.8 20.4726 5.3274C21 5.8548 21 6.7026 21 8.4C21 8.8239 21 9.0363 20.8686 9.1686C20.7363 9.3 20.523 9.3 20.1 9.3H3.9C3.4761 9.3 3.2637 9.3 3.1314 9.1686C3 9.0363 3 8.823 3 8.4ZM3 16.5C3 18.1974 3 19.0452 3.5274 19.5726C4.0548 20.1 4.9026 20.1 6.6 20.1H17.4C19.0974 20.1 19.9452 20.1 20.4726 19.5726C21 19.0452 21 18.1974 21 16.5V12C21 11.5761 21 11.3637 20.8686 11.2314C20.7363 11.1 20.523 11.1 20.1 11.1H3.9C3.4761 11.1 3.2637 11.1 3.1314 11.2314C3 11.3637 3 11.577 3 12V16.5Z" fill="#3C2B4A"/>
<path d="M7.5 3V5.7M16.5 3V5.7" stroke="#3C2B4A" stroke-width="1.8" stroke-linecap="round"/>
</svg>
