<svg width="34" height="32" viewBox="0 0 34 32" fill="none" xmlns="http://www.w3.org/2000/svg">
<path d="M30.0769 0H3.92308C2.88394 0.00438728 1.88859 0.427224 1.1538 1.17642C0.419007 1.92562 0.00430291 2.94049 0 4V22.6667C0.00430291 23.7262 0.419007 24.7411 1.1538 25.4902C1.88859 26.2394 2.88394 26.6623 3.92308 26.6667H15.6923V29.3333H11.7692C11.4224 29.3333 11.0898 29.4738 10.8446 29.7239C10.5993 29.9739 10.4615 30.313 10.4615 30.6667C10.4615 31.0203 10.5993 31.3594 10.8446 31.6095C11.0898 31.8595 11.4224 32 11.7692 32H22.2308C22.5776 32 22.9102 31.8595 23.1554 31.6095C23.4007 31.3594 23.5385 31.0203 23.5385 30.6667C23.5385 30.313 23.4007 29.9739 23.1554 29.7239C22.9102 29.4738 22.5776 29.3333 22.2308 29.3333H18.3077V26.6667H30.0769C31.1161 26.6623 32.1114 26.2394 32.8462 25.4902C33.581 24.7411 33.9957 23.7262 34 22.6667V4C33.9957 2.94049 33.581 1.92562 32.8462 1.17642C32.1114 0.427224 31.1161 0.00438728 30.0769 0ZM30.0769 24H3.92308C3.57626 24 3.24364 23.8595 2.9984 23.6095C2.75316 23.3594 2.61538 23.0203 2.61538 22.6667V20H31.3846V22.6667C31.3846 23.0203 31.2468 23.3594 31.0016 23.6095C30.7564 23.8595 30.4237 24 30.0769 24Z" fill="#527CEB"/>
</svg>
