<svg width="48" height="47" viewBox="0 0 48 47" fill="none" xmlns="http://www.w3.org/2000/svg">
<path opacity="0.4" d="M17.9458 3.91699C12.7217 3.91699 8.47461 8.08824 8.47461 13.2191C8.47461 18.252 12.4824 22.3253 17.7065 22.5016C17.8661 22.482 18.0256 22.482 18.1452 22.5016C18.1851 22.5016 18.205 22.5016 18.2449 22.5016C18.2649 22.5016 18.2649 22.5016 18.2848 22.5016C23.3893 22.3253 27.3971 18.252 27.417 13.2191C27.417 8.08824 23.1699 3.91699 17.9458 3.91699Z" fill="#FC724A"/>
<path d="M28.0748 27.7104C22.5117 24.0679 13.4392 24.0679 7.83627 27.7104C5.30396 29.375 3.9082 31.6271 3.9082 34.0358C3.9082 36.4446 5.30396 38.6771 7.81633 40.3221C10.6078 42.1629 14.2767 43.0833 17.9455 43.0833C21.6144 43.0833 25.2832 42.1629 28.0748 40.3221C30.5871 38.6575 31.9829 36.425 31.9829 33.9966C31.9629 31.5879 30.5871 29.3554 28.0748 27.7104Z" fill="#FC724A"/>
<path opacity="0.4" d="M39.8591 14.3744C40.1782 18.1736 37.4265 21.5028 33.6181 21.9532C33.5982 21.9532 33.5982 21.9532 33.5782 21.9532H33.5184C33.3988 21.9532 33.2791 21.9532 33.1794 21.9924C31.2453 22.0903 29.4707 21.4832 28.1348 20.3669C30.1885 18.5653 31.3649 15.8628 31.1257 12.9253C30.9861 11.339 30.4278 9.88986 29.5903 8.65611C30.348 8.28403 31.2254 8.04903 32.1226 7.97069C36.0308 7.63778 39.5202 10.4969 39.8591 14.3744Z" fill="#FC724A"/>
<path d="M43.847 32.4889C43.6875 34.3885 42.4513 36.0335 40.3776 37.1497C38.3836 38.2268 35.8713 38.736 33.3788 38.6772C34.8145 37.4043 35.6519 35.818 35.8114 34.1339C36.0108 31.7055 34.8344 29.3751 32.4816 27.5147C31.1456 26.4768 29.5904 25.6543 27.8955 25.0472C32.3021 23.7939 37.8453 24.636 41.2549 27.3385C43.0893 28.7876 44.0265 30.6089 43.847 32.4889Z" fill="#FC724A"/>
</svg>
