<svg width="21" height="21" viewBox="0 0 21 21" fill="none" xmlns="http://www.w3.org/2000/svg">
<path d="M10.5 2.97289C12.9352 2.97289 13.2673 2.97289 14.2636 2.97289C15.1491 2.97289 15.5919 3.19428 15.9239 3.30497C16.3667 3.52636 16.6988 3.63705 17.0309 3.96913C17.363 4.30121 17.5843 4.63328 17.695 5.07606C17.8057 5.40813 17.9164 5.8509 18.0271 6.73645C18.0271 7.73268 18.0271 7.95407 18.0271 10.5C18.0271 13.0459 18.0271 13.2673 18.0271 14.2636C18.0271 15.1491 17.8057 15.5919 17.695 15.9239C17.4736 16.3667 17.363 16.6988 17.0309 17.0309C16.6988 17.363 16.3667 17.5843 15.9239 17.695C15.5919 17.8057 15.1491 17.9164 14.2636 18.0271C13.2673 18.0271 13.0459 18.0271 10.5 18.0271C7.95407 18.0271 7.73268 18.0271 6.73645 18.0271C5.8509 18.0271 5.40813 17.8057 5.07606 17.695C4.63328 17.4736 4.30121 17.363 3.96913 17.0309C3.63705 16.6988 3.41566 16.3667 3.30497 15.9239C3.19428 15.5919 3.08358 15.1491 2.97289 14.2636C2.97289 13.2673 2.97289 13.0459 2.97289 10.5C2.97289 7.95407 2.97289 7.73268 2.97289 6.73645C2.97289 5.8509 3.19428 5.40813 3.30497 5.07606C3.52636 4.63328 3.63705 4.30121 3.96913 3.96913C4.30121 3.63705 4.63328 3.41566 5.07606 3.30497C5.40813 3.19428 5.8509 3.08358 6.73645 2.97289C7.73268 2.97289 8.06476 2.97289 10.5 2.97289ZM10.5 1.3125C7.95407 1.3125 7.73268 1.3125 6.73645 1.3125C5.74021 1.3125 5.07605 1.53389 4.52259 1.75527C3.96913 1.97666 3.41566 2.30874 2.8622 2.8622C2.30874 3.41566 2.08735 3.85843 1.75527 4.52259C1.53389 5.07605 1.42319 5.74021 1.3125 6.73645C1.3125 7.73268 1.3125 8.06476 1.3125 10.5C1.3125 13.0459 1.3125 13.2673 1.3125 14.2636C1.3125 15.2598 1.53389 15.9239 1.75527 16.4774C1.97666 17.0309 2.30874 17.5843 2.8622 18.1378C3.41566 18.6913 3.85843 18.9127 4.52259 19.2447C5.07605 19.4661 5.74021 19.5768 6.73645 19.6875C7.73268 19.6875 8.06476 19.6875 10.5 19.6875C12.9352 19.6875 13.2673 19.6875 14.2636 19.6875C15.2598 19.6875 15.9239 19.4661 16.4774 19.2447C17.0309 19.0233 17.5843 18.6913 18.1378 18.1378C18.6913 17.5843 18.9127 17.1416 19.2447 16.4774C19.4661 15.9239 19.5768 15.2598 19.6875 14.2636C19.6875 13.2673 19.6875 12.9352 19.6875 10.5C19.6875 8.06476 19.6875 7.73268 19.6875 6.73645C19.6875 5.74021 19.4661 5.07605 19.2447 4.52259C19.0233 3.96913 18.6913 3.41566 18.1378 2.8622C17.5843 2.30874 17.1416 2.08735 16.4774 1.75527C15.9239 1.53389 15.2598 1.42319 14.2636 1.3125C13.2673 1.3125 13.0459 1.3125 10.5 1.3125Z" fill="#527CEB"/>
<path d="M10.5 5.74021C7.84337 5.74021 5.74021 7.84337 5.74021 10.5C5.74021 13.1566 7.84337 15.2598 10.5 15.2598C13.1566 15.2598 15.2598 13.1566 15.2598 10.5C15.2598 7.84337 13.1566 5.74021 10.5 5.74021ZM10.5 13.5994C8.83961 13.5994 7.4006 12.2711 7.4006 10.5C7.4006 8.83961 8.72892 7.4006 10.5 7.4006C12.1604 7.4006 13.5994 8.72892 13.5994 10.5C13.5994 12.1604 12.1604 13.5994 10.5 13.5994Z" fill="#527CEB"/>
<path d="M15.3705 6.73645C15.9818 6.73645 16.4774 6.24086 16.4774 5.62952C16.4774 5.01818 15.9818 4.52259 15.3705 4.52259C14.7591 4.52259 14.2636 5.01818 14.2636 5.62952C14.2636 6.24086 14.7591 6.73645 15.3705 6.73645Z" fill="#527CEB"/>
</svg>
