<svg width="21" height="21" viewBox="0 0 21 21" fill="none" xmlns="http://www.w3.org/2000/svg">
<path d="M10.5 0.875C5.187 0.875 0.875 5.187 0.875 10.5C0.875 15.813 5.187 20.125 10.5 20.125C15.7938 20.125 20.125 15.813 20.125 10.5C20.125 5.187 15.7938 0.875 10.5 0.875ZM16.8525 5.3025C18.0075 6.70775 18.6813 8.47875 18.7198 10.423C18.4503 10.3653 15.736 9.82625 13.0025 10.1535C12.9448 10.0188 12.887 9.86475 12.8293 9.73C12.656 9.32575 12.4828 8.9215 12.2903 8.5365C15.2933 7.32375 16.6793 5.5335 16.8525 5.3025ZM10.5 2.2995C12.579 2.2995 14.504 3.08875 15.9478 4.35925C15.7938 4.571 14.5618 6.2265 11.6358 7.32375C10.2883 4.8405 8.78675 2.81925 8.575 2.51125C9.191 2.3765 9.82625 2.2995 10.5 2.2995ZM6.9965 3.0695C7.20825 3.35825 8.67125 5.39875 10.038 7.82425C6.188 8.8445 2.8 8.82525 2.43425 8.82525C2.9925 6.265 4.70575 4.1475 6.9965 3.0695ZM2.28025 10.5193C2.28025 10.4423 2.28025 10.346 2.28025 10.269C2.62675 10.2883 6.63075 10.3268 10.731 9.09475C10.962 9.55675 11.193 10.0188 11.4048 10.5C11.3085 10.5385 11.193 10.5578 11.0775 10.5963C6.8425 11.963 4.59025 15.6975 4.39775 16.0055C3.0695 14.5425 2.28025 12.6175 2.28025 10.5193ZM10.5 18.7198C8.59425 18.7198 6.8425 18.0653 5.4565 16.9873C5.6105 16.6793 7.266 13.4645 11.9053 11.8475C11.9245 11.8283 11.9438 11.8283 11.963 11.8283C13.118 14.8313 13.5993 17.3338 13.7148 18.0653C12.733 18.4888 11.6358 18.7198 10.5 18.7198ZM15.0815 17.3145C15.0045 16.814 14.5618 14.4078 13.4838 11.4625C16.0633 11.0583 18.3155 11.732 18.6043 11.809C18.2385 14.0998 16.9295 16.0825 15.0815 17.3145Z" fill="#527CEB"/>
</svg>
