<svg width="47" height="47" viewBox="0 0 47 47" fill="none" xmlns="http://www.w3.org/2000/svg">
<path d="M41.3008 13.6687C39.6362 11.8279 36.8554 10.9075 32.8212 10.9075H32.3512V10.8292C32.3512 7.53915 32.3512 3.46582 24.9879 3.46582H22.0112C14.6479 3.46582 14.6479 7.55874 14.6479 10.8292V10.9271H14.1779C10.1241 10.9271 7.36288 11.8475 5.69829 13.6883C3.75954 15.8425 3.81829 18.7408 4.01413 20.7187L4.03371 20.8558L4.22954 22.9121C4.24913 22.9317 4.28829 22.9708 4.32746 22.9904C4.97371 23.4212 5.63954 23.8521 6.34454 24.2437C6.61871 24.42 6.91246 24.5767 7.20621 24.7333C10.555 26.5742 14.2366 27.8079 17.977 28.415C18.1533 30.2558 18.9562 32.41 23.245 32.41C27.5337 32.41 28.3758 30.2754 28.5129 28.3758C32.5079 27.7296 36.3658 26.3392 39.8516 24.3025C39.9691 24.2437 40.0475 24.185 40.1454 24.1262C41.0462 23.6171 41.8883 23.0687 42.7108 22.4617C42.75 22.4421 42.7891 22.4029 42.8087 22.3637L42.8871 21.6587L42.985 20.7383C43.0046 20.6208 43.0046 20.5229 43.0241 20.3858C43.1808 18.4079 43.1416 15.7054 41.3008 13.6687ZM25.6341 27.0833C25.6341 29.1592 25.6341 29.4725 23.2254 29.4725C20.8166 29.4725 20.8166 29.1004 20.8166 27.1029V24.6354H25.6341V27.0833ZM17.4483 10.9075V10.8292C17.4483 7.49999 17.4483 6.26624 22.0112 6.26624H24.9879C29.5508 6.26624 29.5508 7.51957 29.5508 10.8292V10.9271H17.4483V10.9075Z" fill="#4872E2"/>
<path opacity="0.4" d="M40.1463 24.0877C40.0484 24.1464 39.9505 24.2052 39.8526 24.2639C36.3667 26.3006 32.5088 27.6714 28.5138 28.3373C28.3571 30.2173 27.5346 32.3714 23.2459 32.3714C18.9571 32.3714 18.1346 30.2369 17.978 28.3764C14.2376 27.7889 10.5559 26.5552 7.20714 24.6948C6.91339 24.5381 6.61964 24.3814 6.34547 24.2052C5.64047 23.8135 4.97464 23.3827 4.32839 22.9519C4.28922 22.9323 4.25005 22.8931 4.23047 22.8735L5.42505 35.6223C5.8363 39.5194 7.44214 43.5339 16.0588 43.5339H30.9813C39.598 43.5339 41.2038 39.5194 41.6151 35.6027L42.8488 22.3252C42.8292 22.3644 42.7901 22.4035 42.7509 22.4231C41.9088 23.0302 41.0471 23.5981 40.1463 24.0877Z" fill="#4872E2"/>
</svg>
