<svg width="131" height="38" viewBox="0 0 131 38" fill="none" xmlns="http://www.w3.org/2000/svg">
<path d="M130 18.7471L130.069 19.2423C130.329 19.206 130.517 18.9746 130.499 18.7125C130.481 18.4504 130.263 18.2471 130 18.2471L130 18.7471ZM105.961 0.806106C105.854 0.551571 105.561 0.432037 105.306 0.539119C105.052 0.646201 104.932 0.939349 105.039 1.19388L105.961 0.806106ZM105.009 36.9053C104.957 37.1764 105.134 37.4386 105.405 37.4909C105.676 37.5432 105.939 37.3658 105.991 37.0947L105.009 36.9053ZM-7.76002e-07 19.2471L130 19.2471L130 18.2471L-8.19714e-07 18.2471L-7.76002e-07 19.2471ZM129.931 18.2519C127.553 18.5837 123.543 18.8884 119.152 16.8057C114.767 14.7264 109.925 10.2296 105.961 0.806106L105.039 1.19388C109.075 10.7865 114.066 15.5005 118.723 17.7092C123.373 19.9147 127.614 19.5849 130.069 19.2423L129.931 18.2519ZM129.963 18.2485C126.551 18.501 121.134 18.9195 116.165 21.395C111.163 23.8863 106.64 28.4484 105.009 36.9053L105.991 37.0947C107.56 28.9631 111.87 24.6516 116.61 22.2901C121.383 19.9127 126.615 19.499 130.037 19.2458L129.963 18.2485Z" fill="#A7A7A7"/>
</svg>
