<svg width="35" height="35" viewBox="0 0 35 35" fill="none" xmlns="http://www.w3.org/2000/svg">
<path d="M32.0837 17.3399V18.6378C32.0837 23.8295 30.7857 25.1128 25.6087 25.1128H9.39199C4.21491 25.1128 2.91699 23.8149 2.91699 18.6378V9.39199C2.91699 4.21491 4.21491 2.91699 9.39199 2.91699H11.667" stroke="#527CEB" stroke-width="2.1875" stroke-linecap="round" stroke-linejoin="round"/>
<path d="M17.5 25.1123V32.0831" stroke="#527CEB" stroke-width="2.1875" stroke-linecap="round" stroke-linejoin="round"/>
<path d="M2.91699 18.958H32.0837" stroke="#527CEB" stroke-width="2.1875" stroke-linecap="round" stroke-linejoin="round"/>
<path d="M10.9375 32.083H24.0625" stroke="#527CEB" stroke-width="2.1875" stroke-linecap="round" stroke-linejoin="round"/>
<path d="M26.0459 13.664H19.1042C17.0917 13.664 16.4209 12.3223 16.4209 10.9807V5.84733C16.4209 4.24316 17.7334 2.93066 19.3376 2.93066H26.0459C27.5334 2.93066 28.7292 4.1265 28.7292 5.614V10.9807C28.7292 12.4682 27.5334 13.664 26.0459 13.664Z" stroke="#527CEB" stroke-width="2.1875" stroke-linecap="round" stroke-linejoin="round"/>
<path d="M30.4941 11.5509L28.7295 10.3113V6.28634L30.4941 5.04675C31.3691 4.44884 32.0837 4.81342 32.0837 5.878V10.7343C32.0837 11.7988 31.3691 12.1634 30.4941 11.5509Z" stroke="#527CEB" stroke-width="2.1875" stroke-linecap="round" stroke-linejoin="round"/>
</svg>
