<svg width="36" height="36" viewBox="0 0 36 36" fill="none" xmlns="http://www.w3.org/2000/svg">
<path d="M35.7335 21.7194L33.2594 18.4317C33.276 18.1328 33.2594 17.8174 33.2594 17.5849L35.7335 14.2806C35.8565 14.1198 35.9401 13.9324 35.9776 13.7334C36.0151 13.5345 36.0054 13.3295 35.9493 13.1349C35.5309 11.6041 34.9229 10.1315 34.1395 8.75136C34.0384 8.57605 33.8995 8.42546 33.7329 8.31057C33.5663 8.19568 33.3762 8.11937 33.1764 8.08719L29.1083 7.50603L28.494 6.89167L27.9128 2.8236C27.8803 2.626 27.8057 2.4377 27.6939 2.27152C27.5822 2.10534 27.436 1.96517 27.2652 1.86055C25.8779 1.08 24.4001 0.472192 22.8651 0.0506689C22.6705 -0.00541056 22.4655 -0.0150951 22.2666 0.0223924C22.0676 0.0598798 21.8802 0.143495 21.7194 0.266526L18.4317 2.72397H17.5683L14.2806 0.266526C14.1198 0.143495 13.9324 0.0598798 13.7334 0.0223924C13.5345 -0.0150951 13.3295 -0.00541056 13.1349 0.0506689C11.6041 0.469132 10.1315 1.07713 8.75136 1.86055C8.57605 1.96162 8.42546 2.10051 8.31057 2.2671C8.19568 2.4337 8.11937 2.62381 8.08719 2.8236L7.50603 6.89167L6.89167 7.50603L2.8236 8.08719C2.62381 8.11937 2.4337 8.19568 2.2671 8.31057C2.10051 8.42546 1.96162 8.57605 1.86055 8.75136C1.07713 10.1315 0.469132 11.6041 0.0506689 13.1349C-0.00541056 13.3295 -0.0150951 13.5345 0.0223924 13.7334C0.0598798 13.9324 0.143495 14.1198 0.266526 14.2806L2.74058 17.5683V18.4151L0.266526 21.7194C0.143495 21.8802 0.0598798 22.0676 0.0223924 22.2666C-0.0150951 22.4655 -0.00541056 22.6705 0.0506689 22.8651C0.469132 24.3959 1.07713 25.8685 1.86055 27.2486C1.96162 27.424 2.10051 27.5745 2.2671 27.6894C2.4337 27.8043 2.62381 27.8806 2.8236 27.9128L6.89167 28.494L7.50603 29.1083L8.08719 33.1764C8.11937 33.3762 8.19568 33.5663 8.31057 33.7329C8.42546 33.8995 8.57605 34.0384 8.75136 34.1395C10.1315 34.9229 11.6041 35.5309 13.1349 35.9493C13.2482 35.9822 13.3656 35.9989 13.4836 35.9991C13.7716 36.0029 14.0525 35.9093 14.2806 35.7335L17.5683 33.276H18.4317L21.7194 35.7335C21.8802 35.8565 22.0676 35.9401 22.2666 35.9776C22.4655 36.0151 22.6705 36.0054 22.8651 35.9493C24.3969 35.5339 25.8699 34.9257 27.2486 34.1395C27.424 34.0384 27.5745 33.8995 27.6894 33.7329C27.8043 33.5663 27.8806 33.3762 27.9128 33.1764L28.494 29.0917C28.6932 28.8925 28.9257 28.6766 29.0917 28.494L33.1764 27.9128C33.3762 27.8806 33.5663 27.8043 33.7329 27.6894C33.8995 27.5745 34.0384 27.424 34.1395 27.2486C34.9229 25.8685 35.5309 24.3959 35.9493 22.8651C36.0054 22.6705 36.0151 22.4655 35.9776 22.2666C35.9401 22.0676 35.8565 21.8802 35.7335 21.7194ZM18 25.3059C16.555 25.3059 15.1425 24.8774 13.941 24.0747C12.7396 23.2719 11.8032 22.1308 11.2502 20.7959C10.6972 19.4609 10.5526 17.9919 10.8345 16.5747C11.1164 15.1575 11.8122 13.8557 12.8339 12.8339C13.8557 11.8122 15.1575 11.1164 16.5747 10.8345C17.9919 10.5526 19.4609 10.6972 20.7959 11.2502C22.1308 11.8032 23.2719 12.7396 24.0747 13.941C24.8774 15.1425 25.3059 16.555 25.3059 18C25.3059 19.9377 24.5362 21.7959 23.1661 23.1661C21.7959 24.5362 19.9377 25.3059 18 25.3059Z" fill="#527CEB"/>
</svg>
