<svg width="24" height="24" viewBox="0 0 24 24" fill="none" xmlns="http://www.w3.org/2000/svg">
<path d="M22 4.5C22 3.83696 21.7366 3.20107 21.2678 2.73223C20.7989 2.26339 20.163 2 19.5 2H4.5C3.83696 2 3.20107 2.26339 2.73223 2.73223C2.26339 3.20107 2 3.83696 2 4.5L2 14.5C2 15.163 2.26339 15.7989 2.73223 16.2678C3.20107 16.7366 3.83696 17 4.5 17H16.4825C16.814 17.0001 17.1319 17.1318 17.3663 17.3663L20.9325 20.9325C21.0198 21.0201 21.1312 21.0797 21.2525 21.104C21.3737 21.1282 21.4995 21.116 21.6138 21.0687C21.728 21.0215 21.8257 20.9414 21.8945 20.8386C21.9633 20.7358 22 20.6149 22 20.4913V4.5ZM6.375 5.75H17.625C17.7908 5.75 17.9497 5.81585 18.0669 5.93306C18.1842 6.05027 18.25 6.20924 18.25 6.375C18.25 6.54076 18.1842 6.69973 18.0669 6.81694C17.9497 6.93415 17.7908 7 17.625 7H6.375C6.20924 7 6.05027 6.93415 5.93306 6.81694C5.81585 6.69973 5.75 6.54076 5.75 6.375C5.75 6.20924 5.81585 6.05027 5.93306 5.93306C6.05027 5.81585 6.20924 5.75 6.375 5.75ZM6.375 8.875H17.625C17.7908 8.875 17.9497 8.94085 18.0669 9.05806C18.1842 9.17527 18.25 9.33424 18.25 9.5C18.25 9.66576 18.1842 9.82473 18.0669 9.94194C17.9497 10.0592 17.7908 10.125 17.625 10.125H6.375C6.20924 10.125 6.05027 10.0592 5.93306 9.94194C5.81585 9.82473 5.75 9.66576 5.75 9.5C5.75 9.33424 5.81585 9.17527 5.93306 9.05806C6.05027 8.94085 6.20924 8.875 6.375 8.875ZM6.375 12H12.625C12.7908 12 12.9497 12.0658 13.0669 12.1831C13.1842 12.3003 13.25 12.4592 13.25 12.625C13.25 12.7908 13.1842 12.9497 13.0669 13.0669C12.9497 13.1842 12.7908 13.25 12.625 13.25H6.375C6.20924 13.25 6.05027 13.1842 5.93306 13.0669C5.81585 12.9497 5.75 12.7908 5.75 12.625C5.75 12.4592 5.81585 12.3003 5.93306 12.1831C6.05027 12.0658 6.20924 12 6.375 12Z" fill="#3C2B4A"/>
</svg>
