<svg width="38" height="30" viewBox="0 0 38 30" fill="none" xmlns="http://www.w3.org/2000/svg">
<path d="M2.10096 8.99089L17.0999 4.85483H17.1182L34.2547 0.113076C34.6911 -0.00965224 35.152 -0.0328649 35.5996 0.0453335C36.0473 0.123532 36.4691 0.300924 36.8306 0.563024C37.1969 0.818069 37.4939 1.15192 37.6972 1.53705C37.9005 1.92219 38.0042 2.34758 37.9999 2.77815V26.7638C37.9999 27.4952 37.6944 28.1969 37.1502 28.7157C36.606 29.2344 35.8671 29.5282 35.0951 29.5327C34.8113 29.5334 34.5288 29.4985 34.2547 29.4289L18.9999 25.2063V27.2311C18.9999 27.9655 18.692 28.6697 18.1438 29.189C17.5956 29.7083 16.8521 30 16.0769 30H10.2307C9.45549 30 8.712 29.7083 8.16381 29.189C7.61563 28.6697 7.30767 27.9655 7.30767 27.2311V21.9875L2.10096 20.5511C1.4948 20.3799 0.963055 20.0282 0.584595 19.5481C0.206139 19.068 0.00113297 18.4852 0 17.886V11.656C0.00113297 11.0568 0.206139 10.474 0.584595 9.99388C0.963055 9.51381 1.4948 9.16208 2.10096 8.99089ZM10.2307 27.2311H16.0769V24.4103L10.2307 22.7835V27.2311ZM2.92307 17.886L9.20766 19.6166L16.0769 21.5202V8.02178L2.92307 11.656V17.886Z" fill="#527CEB"/>
</svg>
