<svg width="35" height="35" viewBox="0 0 35 35" fill="none" xmlns="http://www.w3.org/2000/svg">
<g clip-path="url(#clip0_442_276)">
<path d="M25.8407 15.2582C26.6819 14.6945 27.2851 13.8534 27.551 12.8609C27.8417 11.7761 27.6943 10.6459 27.1359 9.67872C26.5774 8.71151 25.6725 8.01875 24.5876 7.72802C23.5951 7.4621 22.5652 7.56396 21.6563 8.01062L19.3146 3.95465C18.8161 3.0912 17.9208 2.58794 16.9267 2.60489C15.9299 2.62315 15.0564 3.15997 14.5896 4.04092C14.2619 4.65985 13.9541 5.30277 13.6282 5.98349C12.3 8.75785 10.7947 11.9024 7.54031 13.7813L3.35857 16.1956C1.91912 17.0267 0.888057 18.3739 0.455206 19.9892C0.0224226 21.6044 0.24172 23.2868 1.07276 24.7261C2.22811 26.7273 4.33152 27.8473 6.49148 27.8473C7.27925 27.8473 8.07447 27.698 8.83408 27.3885L11.7575 32.452C12.3623 33.4995 13.4632 34.0857 14.5938 34.0857C15.148 34.0857 15.7093 33.9448 16.2228 33.6484C16.9766 33.2131 17.5165 32.508 17.743 31.6628C17.9694 30.8176 17.8544 29.937 17.4192 29.1832L14.5426 24.2008C17.5712 22.761 20.7501 23.0053 23.5804 23.2241C24.3335 23.2823 25.0448 23.3373 25.7452 23.3629C26.7401 23.3985 27.6432 22.9112 28.1573 22.057C28.6714 21.2028 28.6808 20.1775 28.1823 19.314L25.8406 15.258L25.8407 15.2582ZM24.1453 9.37876C24.7892 9.5513 25.3257 9.96125 25.6559 10.5332C26.2933 11.6373 25.9844 13.0318 24.9832 13.773L22.5139 9.49593C23.025 9.27397 23.5944 9.23111 24.1454 9.37876H24.1453ZM6.48867 26.1388C4.91996 26.1386 3.39199 25.3252 2.55288 23.8717C1.95009 22.8276 1.79136 21.6059 2.10608 20.4315C2.42074 19.2572 3.16907 18.2785 4.21313 17.6757L7.65523 15.6884L12.1952 23.5423L8.74898 25.532C8.0364 25.9434 7.25778 26.1388 6.48867 26.1388ZM16.0923 31.2206C15.984 31.6249 15.7268 31.9615 15.3683 32.1685C14.6235 32.5985 13.6676 32.3425 13.2375 31.5975L10.3434 26.5847L13.0451 25.0249L15.9392 30.0377C16.1462 30.3963 16.2006 30.8163 16.0922 31.2206H16.0923ZM26.6932 21.1757C26.4988 21.4987 26.1855 21.6697 25.8077 21.6551C25.142 21.6308 24.4475 21.5771 23.7122 21.5203C20.6235 21.2816 17.1508 21.014 13.69 22.7132L9.12058 14.8085C12.3264 12.6587 13.8316 9.51651 15.1697 6.7215C15.4878 6.05684 15.7884 5.42903 16.0999 4.84086C16.2763 4.50775 16.581 4.32051 16.9579 4.31367C16.965 4.31354 16.9721 4.31347 16.9792 4.31347C17.3465 4.31347 17.6497 4.48895 17.8346 4.80921L26.7025 20.1688C26.8909 20.4952 26.8877 20.8529 26.6932 21.1758L26.6932 21.1757ZM24.4735 4.39796L26.2381 1.34148C26.4741 0.932757 26.9966 0.792688 27.4053 1.02873C27.8141 1.26471 27.9541 1.78732 27.7181 2.19597L25.9535 5.25245C25.7952 5.52657 25.508 5.67984 25.2126 5.67984C25.0677 5.67984 24.9208 5.64292 24.7862 5.5652C24.3775 5.32922 24.2375 4.80661 24.4735 4.39796ZM32.4068 7.6222L29.2763 9.42962C29.1418 9.50728 28.9948 9.54426 28.8499 9.54426C28.5546 9.54426 28.2674 9.391 28.1091 9.11688C27.8731 8.70816 28.0132 8.18555 28.4218 7.94964L31.5523 6.14222C31.9609 5.90617 32.4836 6.04631 32.7195 6.45496C32.9555 6.86362 32.8154 7.38629 32.4068 7.6222ZM34.7618 13.7703C34.7618 14.2422 34.3792 14.6248 33.9073 14.6248H30.3779C29.906 14.6248 29.5234 14.2423 29.5234 13.7703C29.5234 13.2984 29.906 12.9158 30.3779 12.9158H33.9073C34.3792 12.9158 34.7618 13.2984 34.7618 13.7703Z" fill="#527CEB"/>
</g>
<defs>
<clipPath id="clip0_442_276">
<rect width="35" height="35" fill="white"/>
</clipPath>
</defs>
</svg>
