<svg width="28" height="22" viewBox="0 0 28 22" fill="none" xmlns="http://www.w3.org/2000/svg">
<path d="M27.4612 2.85939C26.4607 3.29413 25.4021 3.58054 24.3188 3.70958C25.4572 3.04298 26.3133 1.98396 26.7266 0.731151C25.6503 1.36051 24.4747 1.80209 23.2503 2.03699C22.7347 1.49661 22.1145 1.06673 21.4276 0.773463C20.7407 0.4802 20.0013 0.329684 19.2544 0.331064C16.2304 0.331064 13.7832 2.7427 13.7832 5.71557C13.7811 6.12909 13.8284 6.54137 13.9243 6.94362C11.7559 6.84196 9.63259 6.2888 7.69019 5.31952C5.7478 4.35023 4.02912 2.98618 2.6441 1.31461C2.1582 2.13375 1.90123 3.06835 1.90005 4.02076C1.90005 5.88783 2.87415 7.53819 4.34503 8.50507C3.47358 8.48439 2.61998 8.25374 1.85671 7.8327V7.89938C1.85671 10.5111 3.74601 12.6838 6.24655 13.1783C5.77633 13.3037 5.29177 13.3672 4.80513 13.3672C4.45982 13.3678 4.11529 13.3343 3.77657 13.2672C4.47172 15.4066 6.49494 16.9625 8.89158 17.0069C6.94414 18.5078 4.5532 19.319 2.09454 19.313C1.65812 19.3123 1.22211 19.2864 0.788696 19.2352C3.2899 20.8323 6.19735 21.6771 9.16497 21.6691C19.2427 21.6691 24.7484 13.4617 24.7484 6.34349C24.7484 6.1101 24.7423 5.87672 24.7311 5.64889C25.7998 4.88876 26.7243 3.94414 27.4612 2.85939Z" fill="#527CEB"/>
</svg>
