<svg width="18" height="14" viewBox="0 0 18 14" fill="none" xmlns="http://www.w3.org/2000/svg">
<g clip-path="url(#clip0_213_163)">
<path d="M15.6917 3.56718C15.6983 3.71581 15.7019 3.86566 15.7019 4.0155C15.7019 8.57785 12.2302 13.8369 5.87817 13.8369C3.9284 13.8369 2.11337 13.2671 0.585938 12.2871C0.856016 12.3191 1.13093 12.3354 1.40947 12.3354C3.02753 12.3354 4.51569 11.7832 5.69751 10.8575C4.187 10.8297 2.91152 9.83158 2.47227 8.45943C2.68253 8.4993 2.89944 8.52166 3.12118 8.52166C3.43597 8.52166 3.7417 8.48057 4.03112 8.40142C2.45172 8.08482 1.26204 6.68971 1.26204 5.01606C1.26204 5.00156 1.26204 4.98646 1.26265 4.97256C1.72789 5.23055 2.26019 5.38644 2.82573 5.40396C1.90008 4.78586 1.29044 3.7285 1.29044 2.53097C1.29044 1.89776 1.46022 1.30443 1.75749 0.79448C3.45954 2.88382 6.00445 4.25778 8.87322 4.40279C8.814 4.14963 8.7844 3.8868 8.7844 3.61551C8.7844 1.70925 10.33 0.163086 12.2362 0.163086C13.2295 0.163086 14.1256 0.582404 14.7564 1.25307C15.5436 1.0984 16.2808 0.812002 16.9496 0.415039C16.6898 1.22165 16.1442 1.89776 15.4294 2.32554C16.1285 2.24216 16.7956 2.05727 17.4124 1.78236C16.952 2.47357 16.3666 3.082 15.6917 3.56718Z" fill="#527CEB"/>
</g>
<defs>
<clipPath id="clip0_213_163">
<rect width="18" height="14" fill="white"/>
</clipPath>
</defs>
</svg>
