<svg width="30" height="30" viewBox="0 0 30 30" fill="none" xmlns="http://www.w3.org/2000/svg">
<path d="M19.4754 15.0004C19.4754 17.4754 17.4754 19.4754 15.0004 19.4754C12.5254 19.4754 10.5254 17.4754 10.5254 15.0004C10.5254 12.5254 12.5254 10.5254 15.0004 10.5254C17.4754 10.5254 19.4754 12.5254 19.4754 15.0004Z" stroke="#3C2B4A" stroke-width="1.875" stroke-linecap="round" stroke-linejoin="round"/>
<path d="M14.9998 25.3369C19.4123 25.3369 23.5248 22.7369 26.3873 18.2369C27.5123 16.4744 27.5123 13.5119 26.3873 11.7494C23.5248 7.24941 19.4123 4.64941 14.9998 4.64941C10.5873 4.64941 6.4748 7.24941 3.6123 11.7494C2.4873 13.5119 2.4873 16.4744 3.6123 18.2369C6.4748 22.7369 10.5873 25.3369 14.9998 25.3369Z" stroke="#3C2B4A" stroke-width="1.875" stroke-linecap="round" stroke-linejoin="round"/>
</svg>
