<svg width="24" height="24" viewBox="0 0 24 24" fill="none" xmlns="http://www.w3.org/2000/svg">
<path d="M11.7156 14.7159C13.1466 14.7159 14.3065 13.5559 14.3065 12.125C14.3065 10.6941 13.1466 9.53409 11.7156 9.53409C10.2847 9.53409 9.12473 10.6941 9.12473 12.125C9.12473 13.5559 10.2847 14.7159 11.7156 14.7159Z" fill="#3C2B4A"/>
<path d="M21.3927 11.9048C20.6308 9.93416 19.3083 8.22997 17.5884 7.00283C15.8686 5.77569 13.8269 5.07939 11.7156 5C9.60438 5.07939 7.56266 5.77569 5.84282 7.00283C4.12298 8.22997 2.80042 9.93416 2.03859 11.9048C1.98714 12.0471 1.98714 12.2029 2.03859 12.3452C2.80042 14.3158 4.12298 16.02 5.84282 17.2472C7.56266 18.4743 9.60438 19.1706 11.7156 19.25C13.8269 19.1706 15.8686 18.4743 17.5884 17.2472C19.3083 16.02 20.6308 14.3158 21.3927 12.3452C21.4441 12.2029 21.4441 12.0471 21.3927 11.9048ZM11.7156 16.3352C10.8829 16.3352 10.0689 16.0883 9.37656 15.6257C8.68419 15.163 8.14455 14.5055 7.82589 13.7362C7.50723 12.9669 7.42385 12.1203 7.58631 11.3036C7.74876 10.4869 8.14974 9.73673 8.73855 9.14792C9.32736 8.55911 10.0776 8.15812 10.8943 7.99567C11.711 7.83322 12.5575 7.9166 13.3268 8.23526C14.0961 8.55392 14.7537 9.09355 15.2163 9.78592C15.6789 10.4783 15.9259 11.2923 15.9259 12.125C15.9241 13.2411 15.48 14.311 14.6908 15.1002C13.9016 15.8894 12.8317 16.3335 11.7156 16.3352Z" fill="#3C2B4A"/>
</svg>
