<svg width="21" height="21" viewBox="0 0 21 21" fill="none" xmlns="http://www.w3.org/2000/svg">
<path fill-rule="evenodd" clip-rule="evenodd" d="M17.7579 3.23501C15.9484 1.43156 13.5421 0.438564 10.9781 0.4375C5.69455 0.4375 1.39485 4.71599 1.39271 9.97576C1.39164 11.6568 1.83332 13.298 2.6723 14.7444L1.3125 19.6875L6.39343 18.3614C7.79333 19.1218 9.3697 19.5215 10.9739 19.522H10.9781C16.2607 19.522 20.5609 15.243 20.5625 9.98374C20.5636 7.43474 19.5674 5.03847 17.7579 3.23555V3.23501ZM10.9781 17.9112H10.9749C9.54562 17.9112 8.14358 17.5286 6.92013 16.8059L6.62924 16.634L3.61394 17.4211L4.4187 14.4953L4.22941 14.1952C3.43214 12.9329 3.01078 11.4738 3.01131 9.97576C3.01292 5.60468 6.587 2.04832 10.9813 2.04832C13.109 2.04938 15.1094 2.87475 16.6136 4.37382C18.1178 5.87235 18.9455 7.86472 18.9444 9.98268C18.9423 14.3543 15.3687 17.9107 10.9781 17.9107V17.9112ZM15.3479 11.9735C15.1083 11.8543 13.9309 11.2779 13.7111 11.1981C13.4913 11.1183 13.332 11.0789 13.1726 11.3173C13.0133 11.5562 12.554 12.0932 12.4144 12.2518C12.2748 12.4109 12.1347 12.4306 11.8957 12.3114C11.6562 12.1922 10.8846 11.9405 9.96965 11.1284C9.25794 10.4962 8.77722 9.71607 8.63713 9.47714C8.49756 9.2382 8.62215 9.10942 8.74193 8.99075C8.84941 8.88379 8.98149 8.71244 9.10127 8.57301C9.22104 8.43412 9.26061 8.33408 9.34082 8.1755C9.42103 8.01639 9.38093 7.87749 9.32104 7.75776C9.26115 7.63856 8.78257 6.46517 8.58259 5.98836C8.38795 5.52379 8.19063 5.58659 8.04412 5.57914C7.90456 5.57222 7.74467 5.57115 7.58479 5.57115C7.42491 5.57115 7.16557 5.63076 6.9458 5.86916C6.72603 6.10809 6.10735 6.68441 6.10735 7.85727C6.10735 9.03013 6.96558 10.1636 7.08536 10.3233C7.20514 10.4824 8.77455 12.8898 11.1765 13.9222C11.7476 14.168 12.1941 14.3144 12.5422 14.4245C13.116 14.606 13.6378 14.5805 14.0507 14.5193C14.5105 14.4506 15.4677 13.9424 15.6671 13.3858C15.8666 12.8292 15.8666 12.3518 15.8067 12.2523C15.7468 12.1528 15.5869 12.0932 15.3474 11.974V11.9729L15.3479 11.9735Z" fill="#527CEB"/>
</svg>
